<?xml version="1.0" encoding="utf-8"?>
<!-- Generator: Adobe Illustrator 19.2.0, SVG Export Plug-In . SVG Version: 6.00 Build 0)  -->
<svg version="1.1" id="Layer_1" xmlns="http://www.w3.org/2000/svg" xmlns:xlink="http://www.w3.org/1999/xlink" x="0px" y="0px"
	 viewBox="0 0 1000 1000" style="enable-background:new 0 0 1000 1000;" xml:space="preserve">
<style type="text/css">
	.st0{stroke:#000000;stroke-miterlimit:10;}
</style>
<rect id="XMLID_14_" x="-53.4" width="53.4" height="800"/>
<path class="st0" d="M147,677.5c-49,12-98,24-147,36c1,12.7,2,25.3,3,38c19-3.7,38-7.3,57-11c6.2,14.2,12.1,31.3,16,51
	c11.1,56.3-0.1,104-9,131c24.5-25.2,46.3-55.9,61-93c1-2.5,1.9-5,2.8-7.5c-3-7.4-8.2-16.6-17.6-23.2c-7-4.9-13.1-6.2-12.9-7.9
	c0.2-1.9,8-3.5,40.3-2.4c0.5-2.2,1-4.5,1.5-6.7C149.8,745.6,150.6,710.5,147,677.5z"/>
</svg>
