<?xml version="1.0" encoding="utf-8"?>
<!-- Generator: Adobe Illustrator 19.2.0, SVG Export Plug-In . SVG Version: 6.00 Build 0)  -->
<svg version="1.1" id="Layer_1" xmlns="http://www.w3.org/2000/svg" xmlns:xlink="http://www.w3.org/1999/xlink" x="0px" y="0px"
	 viewBox="0 0 1000 1000" style="enable-background:new 0 0 1000 1000;" xml:space="preserve">
<path id="XMLID_40_" d="M802.1,800c-88.8-214.7-177.6-429.5-266.4-644.2C525.8,103.9,515.9,51.9,505.9,0
	c-88.4,8.8-176.8,17.7-265.2,26.5c16.3,12,37.9,31.2,56.3,59.7c8.8,13.6,15.2,26.6,19.9,38.1c-75.9,88.9-171.6,223-242,403.9
	c-39,100.2-61.6,193-75,271.8c5-2,9.9-3.9,14.9-5.9C169,733.4,323.1,672.7,477.3,612c4.7-1.3,13.6-3,22,1.2
	c6.8,3.4,10.6,9.5,13.3,14.9c7.8,16.1,20.8,59.4,34.8,117.7c-3.9,16.6-7.7,33.1-11.6,49.7C624.6,797,713.3,798.5,802.1,800z
	 M94.7,670.6c-5-2.4-7.2-6.6-8-8.2c0.3-1.1,1.3-2.9,3.2-4.2c2.9-1.9,6.4-0.8,8.2-0.3c8,2.7,11.4,11.1,12.2,13.3
	C109.2,671.7,102.1,674.6,94.7,670.6z M419.8,585.5C363.6,611,307.9,635.1,253,657.9c-12.2,1.3-28.9,1.3-43.2-8.2
	c-47.5-31.6-23.9-139.7-6.6-218.8C217,367.8,250.7,214.3,313.8,210c10.6-0.8,19.6,2.9,26.3,6.6c-6.1-15.9-5.6-32.6,2.4-39.8
	c11.1-10.1,39.2-6.1,58.6,19.9c10.6,13.3,9,32.9-3.2,44c-12.7,11.9-33.1,11.4-45.6-1.3c17.2,34.2,33.9,70.5,49.9,109.8
	c31,75.3,53.8,146.9,70.8,212.1C455.3,569.3,437.5,577.5,419.8,585.5z M543.9,555.8c20.4-10.3,38.2-8.7,43.2-0.8
	c1.1,1.3,3.2,5.8,0,14.6c-3.7,0-8.5,0.3-13.8,1.6c-9.8,2.1-17.2,6.4-22,9.5c-1.6-1.9-3.4-4.2-4.8-7.7
	C543.3,565.9,543.6,559.2,543.9,555.8z"/>
</svg>
