<?xml version="1.0" encoding="utf-8"?>
<!-- Generator: Adobe Illustrator 19.2.0, SVG Export Plug-In . SVG Version: 6.00 Build 0)  -->
<svg version="1.1" id="Layer_1" xmlns="http://www.w3.org/2000/svg" xmlns:xlink="http://www.w3.org/1999/xlink" x="0px" y="0px"
	 viewBox="0 0 1000 1000" style="enable-background:new 0 0 1000 1000;" xml:space="preserve">
<path id="XMLID_15_" d="M15.1,796.2c-2.2-8.4-4.5-16.8-6.7-25.2c5.5-1.4,20.3-6,31.9-20.2c15.6-19,13.9-40.9,13.4-45.4
	c-1.9-74.7-2.1-152.7,0-233.5c1.4-54.1,3.7-106.7,6.7-157.9c11.2-0.8,28.3-3.3,47-11.8c33.4-15.1,68.2-47.5,62.2-63.8
	c-8.8-23.6-101.6-7.5-105.8-6.7c0-27.4,0-54.9,0-82.3c-2.9-20.1-8.7-45.7-20.2-73.9C30.3,42.7,13.6,17.5,0,0
	c220.6,0,441.2,0,661.9,0c-13.8,23.5-28,51.6-40.3,84c-23.6,62-32.3,118.3-35.3,161.3c-3.9-0.6-7.8-1.1-11.8-1.7
	c2.5-20.7,9.7-100.4-42-156.2c-18.2-19.7-38.4-30.6-50.4-37c-53.2-28.2-104.4-28.7-131-26.9c-30.2,0.6-60.5,1.1-90.7,1.7
	c-1.1,212.8-2.2,425.6-3.4,638.3c6.4,63.3,33.8,88.6,45.4,97.4c83.2,63.3,274.1-20.7,283.9-120.9c8.7-88.7-126.9-164-134.4-168
	c-41.5-22.4-80.7-30.4-107.5-33.6c26.7-11.8,63.7-31.8,100.8-65.5c29.5-26.8,50-54,63.8-75.6c94.1,12.8,171.2,73.5,194.9,154.5
	c23.9,81.7-16.9,153.1-42,196.5c-14.2,24.6-81.1,133.2-196,149.5c-14.3,2-26.4,2.2-34.7,2C292.5,798.7,153.8,797.5,15.1,796.2z"/>
</svg>
