<?xml version="1.0" encoding="utf-8"?>
<!-- Generator: Adobe Illustrator 19.0.0, SVG Export Plug-In . SVG Version: 6.00 Build 0)  -->
<svg version="1.1" id="Layer_1" xmlns="http://www.w3.org/2000/svg" xmlns:xlink="http://www.w3.org/1999/xlink" x="0px" y="0px"
	 viewBox="0 0 595.3 841.9" style="enable-background:new 0 0 595.3 841.9;" xml:space="preserve">
<style type="text/css">
	.st0{fill:none;}
</style>
<path id="XMLID_13_" class="st0" d="M95,385.3c-3.5,1.3-7,2.5-10.4,3.8c-1-2.6-1.1-4.8-1.1-6.1c0.1-2,0.5-1.5,1.8-6.8
	c0.6-2.5,0.9-4,2.1-4.5c0.7-0.3,1.3-0.2,1.8-0.1C91.1,376.1,93.1,380.7,95,385.3z"/>
<path id="XMLID_6_" d="M184.8,394.1l0.9-1.8v-12.9c0.3-0.2,0.7-0.5,1.3-0.7c0.8-0.3,1.2-0.1,1.5-0.4c0.3-0.4,0.2-1.2-0.1-1.6
	c-0.3-0.5-0.7-0.7-1.1-0.9c-0.6-0.4-1.3-1-1.8-2.3c0-2.3,0-4.6,0.1-7l-1.6-1.6l19.8,1.1l3.6-1.3c-1.1,1.8-2.3,3.8-3.4,6.1
	c-0.8,1.7-1.5,3.4-2.1,4.9c-0.1-2.3-0.2-4.1-0.4-5.5c-0.1-0.9-0.3-1.9-1.1-2.6c-0.5-0.5-1.1-0.7-1.6-0.8c-1.9,0.1-3.8,0.1-5.7,0.2
	l-0.3,20.8c-0.4,0.4-1.1,0.9-1.9,1.2c-1.3,0.5-2.1,0.2-2.3,0.7c-0.2,0.5,0.5,1.4,1.3,1.6c0.4,0.1,0.7-0.1,1.8-0.3
	c0.6-0.1,1.1-0.2,1.5-0.2c0.2,0.6,0.5,1.3,0.9,2.1c0.3,0.6,0.7,1.1,1,1.5C191.7,394.3,188.3,394.2,184.8,394.1z"/>
<path id="XMLID_30_" d="M235.8,392.1c-0.3-0.4-0.8-1.1-1.3-1.9c-2.6-4.2-3.2-7.9-4.2-14.2c-0.3-2-0.9-5.6-1.9-11.3
	c-1.3,0.2-2.6,0.4-4,0.5c-3.2,0.3-6.1,0.3-8.7,0.2c0,0.1,0,0.3,0.1,0.5c0.3,0.5,0.9,0.4,1.6,0.7c1,0.5,1.3,2,1.3,2.1
	c0.2,1.4-0.6,2.5-0.8,2.6c-3.5,7.1-7,14.2-10.6,21.4c-0.2,0.2-0.5,0.4-0.9,0.6c-0.8,0.4-1.6,0.4-2,0.3c0.7,1.7,1.4,3.8,1.9,6.2
	c0.5,2.4,0.8,4.5,0.9,6.4c0.8-2.6,2-5.5,3.7-8.5c0.6-1,1.1-1.9,1.7-2.8c5.6-0.1,11.2-0.3,16.8-0.4c1-0.1,2.5-0.1,3.4,0.8
	c1,1,0.8,2.5,0.8,4.9c0,1.6,0.2,3.9,0.8,6.8c0.8-2.3,1.7-4.8,2.9-7.5c1.3-2.8,2.6-5.3,3.9-7.5H235.8z M227.4,387.3
	c-0.9,0.4-1.8,0.8-2.6,1.1c0.4,1.5,0.8,3,1.3,4.6c-5.3-0.1-10.5-0.1-15.8-0.2l8.1-19.3c0-1.1,0.6-1.8,1.2-1.9c0.5,0,0.9,0.4,1.1,0.6
	c0.5,0.5,0.5,1.1,0.6,1.3c0.8,3.6,1.5,7.3,2.3,10.9c0.5,0.2,1.2,0.3,1.9,0.3c1.5-0.1,2.2-0.9,3.3-0.6c0.6,0.1,1,0.5,1.4,0.8
	c1,0.4,1.5,0.8,1.5,1.1C231.5,386.4,230.2,386.9,227.4,387.3z"/>
<path id="XMLID_19_" class="st0" d="M231.6,385.9c0,0.5-1.4,1-4.1,1.4c-0.9,0.4-1.8,0.8-2.6,1.1c0.4,1.5,0.8,3,1.3,4.6
	c-5.3-0.1-10.5-0.1-15.8-0.2l8.1-19.3c0-1.1,0.6-1.8,1.2-1.9c0.5,0,0.9,0.4,1.1,0.6c0.5,0.5,0.5,1.1,0.6,1.3
	c0.8,3.6,1.5,7.3,2.3,10.9c0.5,0.2,1.2,0.3,1.9,0.3c1.5-0.1,2.2-0.9,3.3-0.6c0.6,0.1,1,0.5,1.4,0.8
	C231.1,385.2,231.6,385.5,231.6,385.9z"/>
<path id="XMLID_15_" class="st0" d="M231.6,385.9c0,0.5-1.4,1-4.1,1.4c-0.9,0.4-1.8,0.8-2.6,1.1c0.4,1.5,0.8,3,1.3,4.6
	c-5.3-0.1-10.5-0.1-15.8-0.2l8.1-19.3c0-1.1,0.6-1.8,1.2-1.9c0.5,0,0.9,0.4,1.1,0.6c0.5,0.5,0.5,1.1,0.6,1.3
	c0.8,3.6,1.5,7.3,2.3,10.9c0.5,0.2,1.2,0.3,1.9,0.3c1.5-0.1,2.2-0.9,3.3-0.6c0.6,0.1,1,0.5,1.4,0.8
	C231.1,385.2,231.6,385.5,231.6,385.9z"/>
<path id="XMLID_36_" d="M276.1,386.7c-0.2-1.4-0.9-2.5-2-3.8c-2.7-3.1-6.1-5.1-8.8-6.4c-0.4,0.8-1.4,2.9-3.8,4.3
	c-1.8,1.1-3.5,1.3-4.4,1.4c0.1-5,0.2-10,0.3-15l1.2-1.3c1.1-0.1,3.7-0.3,6.4,1.1c4.5,2.3,5.7,6.8,5.9,7.6c0.9-3.3,1.8-6.6,2.8-9.9
	c-5.4,0-10.8,0-16.2,0c-0.1-1.3-0.1-2.8,0.3-4.6c0.2-0.9,0.4-1.7,0.6-2.4h-9.6c0.3,0.4,0.7,1,1,1.9c0.2,0.5,0.3,1,0.3,1.4
	c0.1,1.3,0.1,2.5,0.2,3.8c-3.8,0-7.7,0-11.6,0l1.3,12.9c1.7-5.5,3.9-9.4,5.6-10.6c1.4-1,2.7-0.9,2.7-0.9c0.8,0,1.4,0.3,1.7,0.6
	c0.1,1.5,0.1,3,0.2,4.6c1.5-0.6,2.8-0.3,3.3,0.4c0.4,0.6-0.1,1.5-0.2,1.7c-0.8,1.5-2.8,1.7-3.1,1.8c-0.1,4.8-0.3,9.6-0.4,14.4
	l-1.2,1.7c2.2-0.8,3.9-0.5,4.3,0.3c0.1,0.1,0.3,0.6-0.4,1.6c-0.7,0-1.6,0.1-2.8,0.5c-1.1,0.4-1.9,1-2.4,1.4h10.9l-1.1-2.3l-0.3-8.8
	c0.7-0.2,3.7-0.8,6.8,1.1c2.3,1.4,3.9,3.7,4.3,6.1c0.6,3.7-1.8,7.9-6.2,10.2c3.8-1.7,10.7-5.3,13-9.5
	C275.5,390.6,276.5,388.9,276.1,386.7z M267.5,383.3c-0.7,0.5-1.6,0.4-2.4-0.1c-0.2-0.1-0.6-0.5-0.6-1c0-0.8,0.9-1.5,1.8-1.5
	c0.8,0,1.7,0.6,1.9,1.6C268.1,382.5,268,383,267.5,383.3z"/>
<path id="XMLID_31_" class="st0" d="M259.8,402.1c0.3-0.1,1.1-0.4,2.2-0.9C261.3,401.5,260.6,401.8,259.8,402.1z"/>
<path id="XMLID_32_" class="st0" d="M268.2,382.3c-0.1,0.2-0.2,0.7-0.7,1.1c-0.7,0.5-1.6,0.4-2.4-0.1c-0.2-0.1-0.6-0.5-0.6-1
	c0-0.8,0.9-1.5,1.8-1.5C267.1,380.7,267.9,381.3,268.2,382.3z"/>
<path id="XMLID_20_" class="st0" d="M268.2,382.3c-0.1,0.2-0.2,0.7-0.7,1.1c-0.7,0.5-1.6,0.4-2.4-0.1c-0.2-0.1-0.6-0.5-0.6-1
	c0-0.8,0.9-1.5,1.8-1.5C267.1,380.7,267.9,381.3,268.2,382.3z"/>
<path id="XMLID_7_" d="M295.4,399c2.2-1.9,4.6-3.8,7.1-5.7c0.3-0.2,0.6-0.5,0.9-0.7c1-0.2,2-0.5,3.1-0.9c0.4-0.2,0.8-0.3,1.2-0.5
	c0.2-0.1,0.2-0.3,0.2-0.5c-0.1-0.2-0.2-0.3-0.4-0.3c-1.5,0.6-2.7,0.8-3.6,0.8c-2.6,0.1-4.8-0.7-4.8-0.7c-1.5-0.6-2.3-1.3-3.5-1
	c-0.6,0.2-1,0.5-1.3,0.8c-1.4,1.5-3.2,1.7-3.8,1c-0.5-0.5-0.4-1.5,0.1-2.4c0.2-2.1-0.2-3.4-0.8-4.2c-0.6-0.9-1.2-1.3-1.7-2.4
	c-0.2-0.5-0.4-1.4,0-2.7c0.5-0.2,1.2-0.5,2.2-0.7c2.8-0.7,4-0.2,8-0.2c3.8-0.1,5.4-0.6,6.2-0.8c1-0.4,1.8-0.8,2.5-1.2
	c-0.1-0.1-0.3-0.3-0.6-0.4c-0.1,0-0.3,0-0.8,0.2c-0.2,0.1-0.5,0.2-0.8,0.3c-5.1,0.1-10.1,0.2-15.2,0.4c0.1,0.2,0.2,0.7,0,1.1
	c-0.3,0.5-1.4,0.7-2.3,0.1c-0.3-1.5-0.6-4.2,0.5-7.3c0.5-1.4,1-2.9,2.4-4c2.4-1.9,6.3-2.2,9-0.3c1.8,1.3,2.5,3.1,2.8,3.9
	c-0.1-1.8-0.2-3.6-0.3-5.3c-0.3-0.5-0.4-0.9-0.4-1.2c-0.1-1.3,0.8-2.7,2.3-3.5c-0.9-0.2-2-0.3-3.2-0.3c-2.8,0-5.1,0.8-6.6,1.4
	c0.3,1.4,0.2,2.6-0.4,2.9c-0.1,0.1-0.2,0.1-0.4,0.1c-0.7-0.1-1.4-0.3-2.1-0.4c-0.9,1-2.1,2.4-3.3,4.3c-1.4,2.2-5.2,8.3-4.3,15.2
	C284.5,393.5,294.5,398.6,295.4,399z"/>
<path id="XMLID_40_" d="M106.7,393.9c-3.3-8.1-6.7-16.2-10-24.3c-0.4-2-0.8-3.9-1.1-5.9c-3.3,0.3-6.7,0.7-10,1
	c0.6,0.5,1.4,1.2,2.1,2.3c0.3,0.5,0.6,1,0.8,1.4c-2.9,3.4-6.5,8.4-9.1,15.2c-1.5,3.8-2.3,7.3-2.8,10.3c0.2-0.1,0.4-0.1,0.6-0.2
	c5.8-2.3,11.6-4.6,17.4-6.9c0.2,0,0.5-0.1,0.8,0c0.3,0.1,0.4,0.4,0.5,0.6c0.3,0.6,0.8,2.2,1.3,4.4c-0.1,0.6-0.3,1.3-0.4,1.9
	C100,393.8,103.3,393.9,106.7,393.9z M80,389c-0.2-0.1-0.3-0.3-0.3-0.3c0,0,0-0.1,0.1-0.2c0.1-0.1,0.2,0,0.3,0
	c0.3,0.1,0.4,0.4,0.5,0.5C80.5,389.1,80.3,389.2,80,389z M92.3,385.8c-2.1,1-4.2,1.9-6.3,2.7c-0.5,0-1.1,0-1.6-0.3
	c-1.8-1.2-0.9-5.3-0.3-8.3c0.5-2.4,1.8-8.2,4.2-8.3c0.4,0,0.7,0.1,1,0.3c-0.2-0.6-0.2-1.2,0.1-1.5c0.4-0.4,1.5-0.2,2.2,0.8
	c0.4,0.5,0.3,1.2-0.1,1.7c-0.5,0.5-1.3,0.4-1.7,0c0.6,1.3,1.3,2.7,1.9,4.1c1.2,2.8,2,5.5,2.7,8C93.6,385.2,92.9,385.5,92.3,385.8z
	 M96.9,384.7c0.8-0.4,1.4-0.3,1.6,0c0,0,0.1,0.2,0,0.5c-0.1,0-0.3,0-0.5,0.1c-0.4,0.1-0.6,0.2-0.8,0.4c-0.1-0.1-0.1-0.2-0.2-0.3
	C96.9,385.1,96.9,384.8,96.9,384.7z"/>
<path id="XMLID_26_" class="st0" d="M80.6,389.1c0,0-0.3,0.1-0.6,0c-0.2-0.1-0.3-0.3-0.3-0.3c0,0,0-0.1,0.1-0.2c0.1-0.1,0.2,0,0.3,0
	C80.4,388.7,80.5,389,80.6,389.1z"/>
<path id="XMLID_27_" class="st0" d="M91.6,376.9c1.2,2.8,2,5.5,2.7,8c-0.7,0.3-1.3,0.6-2,0.9c-2.1,1-4.2,1.9-6.3,2.7
	c-0.5,0-1.1,0-1.6-0.3c-1.8-1.2-0.9-5.3-0.3-8.3c0.5-2.4,1.8-8.2,4.2-8.3c0.4,0,0.7,0.1,1,0.3c-0.2-0.6-0.2-1.2,0.1-1.5
	c0.4-0.4,1.5-0.2,2.2,0.8c0.4,0.5,0.3,1.2-0.1,1.7c-0.5,0.5-1.3,0.4-1.7,0C90.3,374.1,91,375.4,91.6,376.9z"/>
<path id="XMLID_28_" class="st0" d="M98.6,385.2c-0.1,0-0.3,0-0.5,0.1c-0.4,0.1-0.6,0.2-0.8,0.4c-0.1-0.1-0.1-0.2-0.2-0.3
	c-0.1-0.3-0.1-0.5-0.1-0.7c0.8-0.4,1.4-0.3,1.6,0C98.6,384.7,98.7,384.9,98.6,385.2z"/>
<path id="XMLID_18_" class="st0" d="M94.3,384.9c-0.7,0.3-1.3,0.6-2,0.9c-2.1,1-4.2,1.9-6.3,2.7c-0.5,0-1.1,0-1.6-0.3
	c-1.8-1.2-0.9-5.3-0.3-8.3c0.5-2.4,1.8-8.2,4.2-8.3c0.4,0,0.7,0.1,1,0.3c-0.2-0.6-0.2-1.2,0.1-1.5c0.4-0.4,1.5-0.2,2.2,0.8
	c0.4,0.5,0.3,1.2-0.1,1.7c-0.5,0.5-1.3,0.4-1.7,0c0.6,1.3,1.3,2.7,1.9,4.1C92.8,379.8,93.6,382.5,94.3,384.9z"/>
<path id="XMLID_17_" class="st0" d="M98.6,385.2c-0.1,0-0.3,0-0.5,0.1c-0.4,0.1-0.6,0.2-0.8,0.4c-0.1-0.1-0.1-0.2-0.2-0.3
	c-0.1-0.3-0.1-0.5-0.1-0.7c0.8-0.4,1.4-0.3,1.6,0C98.6,384.7,98.7,384.9,98.6,385.2z"/>
<path id="XMLID_16_" class="st0" d="M80.6,389.1c0,0-0.3,0.1-0.6,0c-0.2-0.1-0.3-0.3-0.3-0.3c0,0,0-0.1,0.1-0.2c0.1-0.1,0.2,0,0.3,0
	C80.4,388.7,80.5,389,80.6,389.1z"/>
<path id="XMLID_1_" d="M115.2,394.3c-0.1-0.3-0.2-0.6-0.3-0.9c0.2-0.1,0.8-0.2,1.2-0.8c0.6-0.7,0.5-1.5,0.5-1.7
	c-0.1-2.8-0.1-5.7,0-8.7c0.1-2,0.1-4,0.3-5.9c0.4,0,1.1-0.1,1.8-0.4c1.2-0.6,2.5-1.8,2.3-2.4c-0.3-0.9-3.8-0.3-3.9-0.3
	c0-1,0-2,0-3.1c-0.1-0.7-0.3-1.7-0.8-2.8c-0.5-1.2-1.1-2.2-1.6-2.8c8.2,0,16.4,0,24.6,0c-0.5,0.9-1,1.9-1.5,3.1
	c-0.9,2.3-1.2,4.4-1.3,6c-0.1,0-0.3,0-0.4-0.1c0.1-0.8,0.4-3.7-1.6-5.8c-0.7-0.7-1.4-1.1-1.9-1.4c-2-1-3.9-1.1-4.9-1
	c-1.1,0-2.3,0-3.4,0.1c0,7.9-0.1,15.8-0.1,23.8c0.2,2.4,1.3,3.3,1.7,3.6c3.1,2.4,10.2-0.8,10.6-4.5c0.3-3.3-4.7-6.1-5-6.3
	c-1.5-0.8-3-1.1-4-1.3c1-0.4,2.4-1.2,3.8-2.4c1.1-1,1.9-2,2.4-2.8c3.5,0.5,6.4,2.7,7.3,5.8c0.9,3-0.6,5.7-1.6,7.3
	c-0.5,0.9-3,5-7.3,5.6c-0.5,0.1-1,0.1-1.3,0.1C125.5,394.4,120.3,394.4,115.2,394.3z"/>
<path id="XMLID_60_" d="M148.9,394.3c9.2,0.1,18.4,0.2,27.6,0.3c0-1-0.3-6.7-4.7-10.3c-3.4-2.8-7.4-2.9-9.8-3c-1,0-2.1,0.1-2.1,0.1
	c-0.3,0-0.6,0.1-0.7,0.1c0-0.3,0-0.5,0-0.8c0-1,0-2,0-3c0-1.3,0-2.5-0.1-3.8c3.6-0.1,6.5-0.5,8.5-0.9c3.7-0.7,4.6-1.3,5.3-1.9
	c2.2-2,2.2-5.2,2.2-6.4l-25.1,0c0.2,0.2,0.5,0.6,0.8,1.2c0.2,0.5,0.2,0.9,0.2,1.1c0,8.4-0.1,16.8-0.1,25.3c-0.1,0.3-0.3,0.7-0.6,1
	C149.7,393.8,149.2,394.1,148.9,394.3z M166.1,366.3c0.3,0.7,0.7,2.1,0.1,3.5c-0.9,2.2-3.8,3.6-7.2,3c0-2.2-0.1-4.3-0.1-6.5
	C161.3,366.3,163.7,366.3,166.1,366.3z M155.3,377.1c0.1-0.1,0.5-0.1,0.5,0.1c0,0.1-0.3,0.4-0.4,0.3
	C155.3,377.4,155.3,377.2,155.3,377.1z M158.6,384.1c0.2,0.1,0.4,0.2,0.5,0.3c0-0.5,0-1,0-1.5c0.7-0.1,1.7-0.1,3,0
	c2,0.2,3.8,0.3,5.2,1.5c2.3,2,2.8,6.5,0.9,8.2c-0.4,0.4-0.9,0.5-1.3,0.6c-1.2,0-2.4,0-3.6,0c-1.4,0-2.8,0-4.2,0c0-2,0-4,0-6
	c-0.2,0.1-0.4,0.3-0.7,0.5c-0.8,0.3-1.5,0.1-2.3-0.1c-1.1-0.3-1.8-0.8-2.2-1.2c0.2-0.6,0.5-1,0.7-1.2
	C155.5,383.8,157.3,383.5,158.6,384.1z M154.3,378.5c0.1,0,0.1,0.2,0.1,0.2c0,0.1-0.3,0-0.3-0.1
	C154.1,378.6,154.2,378.5,154.3,378.5z M153.8,372.1c0.1,0.1,0.1,0.3,0,0.4c-0.1,0.1-0.4-0.1-0.4-0.3
	C153.4,372.2,153.7,372,153.8,372.1z"/>
<path id="XMLID_51_" class="st0" d="M153.8,372.5c-0.1,0.1-0.4-0.1-0.4-0.3c0-0.1,0.4-0.3,0.5-0.1
	C153.9,372.2,153.9,372.5,153.8,372.5z"/>
<path id="XMLID_52_" class="st0" d="M154.1,378.7c0-0.1,0.1-0.2,0.2-0.2c0.1,0,0.1,0.2,0.1,0.2C154.3,378.8,154.1,378.8,154.1,378.7
	z"/>
<path id="XMLID_53_" class="st0" d="M155.5,377.4c-0.1-0.1-0.2-0.3-0.1-0.4c0.1-0.1,0.5-0.1,0.5,0.1
	C155.9,377.3,155.6,377.5,155.5,377.4z"/>
<path id="XMLID_54_" class="st0" d="M159.3,372.7c-0.1-2.2-0.2-4.3-0.3-6.5c2.4,0,4.7,0,7.1,0.1c0.3,0.6,0.7,2,0.1,3.5
	C165.4,371.9,162.5,373.3,159.3,372.7z"/>
<path id="XMLID_55_" class="st0" d="M168.2,392.4c-0.3,0.3-0.7,0.5-1.3,0.6c-2.4,0-4.8,0-7.2-0.1v-5.9c-0.5,0.2-1.9,0.7-3.6,0.3
	c-1.1-0.3-1.8-0.8-2.2-1.2c0.1-0.6,0.4-1,0.7-1.2c1.1-1,2.9,0.1,4.1-0.9c0.4-0.3,0.6-0.8,0.8-1.2c1-0.1,2.3-0.2,3.9,0.1
	c1.8,0.3,3.1,0.9,4.1,1.3C169.3,387.7,169.6,391,168.2,392.4z"/>
<path id="XMLID_46_" class="st0" d="M168.2,392.4c-0.3,0.3-0.7,0.5-1.3,0.6c-2.4,0-4.8,0-7.2-0.1v-5.9c-0.5,0.2-1.9,0.7-3.6,0.3
	c-1.1-0.3-1.8-0.8-2.2-1.2c0.1-0.6,0.4-1,0.7-1.2c1.1-1,2.9,0.1,4.1-0.9c0.4-0.3,0.6-0.8,0.8-1.2c1-0.1,2.3-0.2,3.9,0.1
	c1.8,0.3,3.1,0.9,4.1,1.3C169.3,387.7,169.6,391,168.2,392.4z"/>
<path id="XMLID_45_" class="st0" d="M166.3,369.8c-0.9,2.2-3.7,3.5-6.9,2.9c-0.1-2.2-0.2-4.3-0.3-6.5c2.4,0,4.7,0,7.1,0.1
	C166.4,366.9,166.8,368.3,166.3,369.8z"/>
<path id="XMLID_44_" class="st0" d="M153.8,372.5c-0.1,0.1-0.4-0.1-0.4-0.3c0-0.1,0.4-0.3,0.5-0.1
	C153.9,372.2,153.9,372.5,153.8,372.5z"/>
<path id="XMLID_43_" class="st0" d="M155.9,377.1c0,0.1-0.3,0.4-0.4,0.3c-0.1-0.1-0.2-0.3-0.1-0.4
	C155.5,376.9,155.8,377,155.9,377.1z"/>
<path id="XMLID_37_" class="st0" d="M154.3,378.8c0,0.1-0.3,0-0.3-0.1c0-0.1,0.1-0.2,0.2-0.2C154.4,378.6,154.4,378.7,154.3,378.8z"
	/>
<g id="XMLID_10_">
	<path id="XMLID_4_" d="M314.5,369.8c0.1-0.1,2.3-2,4.7-1.3c0.9,0.3,1.5,0.8,1.9,1.2c2.5,2.8,5,5.7,7.4,8.5c-1.2,0.4-2.5,0.7-4,1
		c-2.1,0.4-4,0.5-5.6,0.5c0.1,0.2,0.2,0.4,0.4,0.6c0.5,0.5,1,0.8,1.3,0.9c-0.9,1.1-1.9,2.3-2.8,3.6c-2.6,3.6-4.7,7.1-6.3,10.3
		c3.1,0.3,6.1,0.6,9.2,0.9c1-3.3,2.5-7.3,4.8-11.4c1.3-2.5,2.8-4.6,4.1-6.5c-1.1-1.4-2.1-2.8-3.2-4.3c-2.4-3.3-4.6-6.6-6.7-9.8
		C315.2,368.5,314.3,370,314.5,369.8z"/>
	<path id="XMLID_8_" d="M332.6,376.1c0.1-1.6,0.2-3.1,0.3-4.7c0.2-0.7,0.6-2.6-0.4-4.7c-0.5-1-1.1-1.7-1.6-2.1c3.3,0,6.6,0,9.9,0.1
		c-0.4,1.2-0.8,2.6-1,4.2c-0.3,2.1-0.3,3.9-0.3,5.4c0,4.1-0.1,8.2-0.1,12.3c0,1.1,0.1,2.5,0.4,4.1c0.4,1.9,1.1,3.3,1.7,4.4
		c-3.5,0.1-7,0.2-10.6,0.3c0.7-2.3,1.3-5.3,1.4-8.8c0-1.3-0.1-2.6-0.2-3.8c0.1,0,2.1,0.8,3.4-0.3c0.4-0.3,0.7-0.7,0.8-1.1
		c0,0-0.4-0.1-0.6-0.4c-0.2-0.3-0.1-0.7,0.1-0.9c1.8-1.3,2.4-3.2,1.8-4.1C337.2,374.9,334.8,374.5,332.6,376.1z"/>
	<path id="XMLID_9_" d="M342.1,378.4c1.4-2.8,3.9-7.1,8.4-10.9c2.4-2,4.7-3.4,6.7-4.4c0.4,0.3,0.8,0.6,1.3,0.9
		c-0.7,0.7-1.6,1.9-2.3,3.7c-0.8,2.2-0.7,4.1-0.6,5.1c-0.3,0-0.5,0-0.8-0.1c-0.1-1.7-1.3-3.1-2.9-3.4c-1.8-0.3-3.1,1.1-3.2,1.2
		c-1.2,1.3-2.6,3.1-3.7,5.4c-0.4,0.8-0.7,1.6-0.9,2.4c0.7,0.1,1.5,0.2,2.3,0.2c1.3,0,2.6,0,3.6-0.1c1.8,2.2,3.8,4.7,5.7,7.6
		c2.1,3.1,3.7,6.2,5.1,8.9c-3.2,0-6.5,0.1-9.7,0.1c-0.7-2.9-2-7-4.8-11.3C345,381.6,343.5,379.8,342.1,378.4z"/>
</g>
<path id="XMLID_11_" d="M370.4,379c-0.3-2.4-0.8-5.2-1.7-8.3c-0.7-2.4-1.5-4.5-2.4-6.3c4.1,0.2,8.3,0.4,12.5,0.6
	c5.4,0.3,10.7,0.7,16,1.1c-3.9,6.4-7.8,12.8-11.7,19.2c0.2,0.4,0.4,0.7,0.6,0.9c1.2,1.2,3.5,1.1,5.8,0.1c0.2-0.1,2.6-0.8,4.1,0.6
	c0.1,0.1,0.8,0.7,1,2c0.2,0.8,0.3,2.9-2,6.1c-3.6,4.8-9.2,6.8-12.7,8.1c-2.6,0.9-6.5,2-11.4,2.5c0.2-2,0.3-4.3,0.1-6.9
	c-0.1-1.6-0.4-3.1-0.6-4.4c0.3,0,0.5,0,0.8-0.1c1,1.8,1.6,3.1,1.9,3.7c1.6,3,2,3.8,3,4.4c1.3,0.8,2.6,0.8,3.1,0.8
	c2.7-0.1,4.6-1.9,6.7-4.1c1-1,2.5-2.6,3.8-4.8c0-0.2,0-0.4-0.1-0.6c-0.1,0-0.5,0.3-1,0.1c-0.4-0.1-0.6-0.4-0.7-0.5
	c0.8-2.4,0-3.8-0.2-4.1c-1.2-2-4.3-2-7-2.1c-2,0-3.6,0.2-4.8,0.5c3.2-6.3,6.3-12.7,9.5-19c0.2,0.5,0.4,1.2,0.7,2
	c0.6,1.6,0.8,2,1.2,2.2c0.8,0.5,1.7,0.1,1.8,0.1c1.1-0.4,1.3-1.5,1.3-1.6c0.1,0.3,0.3,0.8,0.6,0.9c0.4,0.1,0.7-0.4,1.1-0.8
	c1.6-2,2.5-2.2,2.4-2.7c-0.1-0.5-1.3-1.1-6.9-0.9c-3.5-0.4-6.9-0.8-10.4-1.1c-0.8,1.6-1.7,3.5-2.4,5.6
	C371.4,374.5,370.8,376.9,370.4,379z"/>
<path id="XMLID_12_" d="M404.6,395.3c0.3-5,0.5-10,0.8-14.9c0-0.9-0.1-1.8-0.2-2.7c-0.1-0.7-0.1-1.3-0.2-1.9c0.3-0.1,0.6-0.2,1-0.4
	c0.7-0.4,1.1-0.9,1.3-1.2c0-0.4,0-0.7-0.1-1.1c-0.7-0.5-1.1-1.1-1.3-1.4c-0.3-0.5-0.6-1-0.4-1.6c0.1-0.4,0.3-0.6,0.4-0.8
	c0-0.3,0-1.2-0.6-2.1c-0.5-0.8-1.2-1.1-1.5-1.3c0-0.3,0-0.6,0-0.9c1.5,0.2,3.3,0.4,5.3,0.4c1.8,0,3.5-0.2,4.9-0.4
	c-0.4,3.6-0.3,6.6-0.6,8.8c-0.3,2.7,0.4,3.5,0.8,3.8c1,0.7,2-0.6,5.8-1.2c2.1-0.3,3.4-0.2,4.8-1.3c0.6-0.4,1-0.9,1.3-1.3
	c0.1-1.1,0-2.4-0.1-3.9c-0.2-1.9-0.6-3.5-1.1-4.8c3.3-0.1,6.5-0.3,9.8-0.4c0,0.5,0,1.1,0,1.6c-0.2,0.1-0.4,0.5-0.6,0.9
	c-0.2,0.9,0.3,1.6,0.4,1.8c0,1.6,0,3.1-0.1,4.7c-0.3-0.1-1.8-0.4-3.1,0.5c-0.8,0.5-1.3,1.2-1.5,1.8c-0.6,1.8,1,4.6,4.1,6.5
	c-0.2,0.4-0.5,1.2-0.4,2.3c0.1,1.2,0.5,2,0.8,2.4c0.1,2.6,0.3,5.3,0.4,7.9c-3.1,0.1-6.3,0.3-9.4,0.4c0.3-5.5,0.5-11.1,0.8-16.6
	c0,0,0.8-0.4,0.9-1.1c0-0.7-0.8-1.2-1.2-1.3c-0.8-0.3-1.8,0-2.6,0.8c-3.3,1.1-6.5,2.1-9.8,3.2c0.3,4.7,0.6,9.4,0.9,14.1
	C411.1,394.9,407.9,395.1,404.6,395.3z"/>
<path id="XMLID_14_" d="M446.6,364.9c3.6-0.3,7.1-0.5,10.7-0.8c-0.1,4.9-0.3,9.9-0.4,14.8c-1.3,0-2.3,0.7-2.4,1.6
	c0,0.1-0.1,0.6,0.3,1.1c-0.1,0.1-0.6,0.8-0.4,1.4c0.3,0.6,1.4,0.9,2.6,0.3c0,3.7,0.1,7.5,0.1,11.2c-0.9,0-2.4,0.2-4,1.1
	c-1.1,0.6-1.8,1.3-2.3,1.8c-1.9,3.2-3.7,6.5-5.6,9.7c-0.8,1.6-1.5,1.7-1.8,1.8c-0.7,0-1.2-0.7-2.7-3c-0.7-1.1-1.5-2.3-2.4-3.8
	c0.2,0,0.5,0,0.7,0.1c1.1,1.8,2.9,3,4.5,2.8c1.8-0.3,2.7-2.3,3.5-4.1c0.8-1.9,1-3.6,1.1-4.6c0.5-4.1,0.9-8.8,0.8-13.9
	c0-4.4-0.4-8.5-0.8-12.1c0.1-0.7,0.1-1.9-0.4-3.3C447.5,366,447,365.3,446.6,364.9z"/>
<g id="XMLID_25_">
	<path id="XMLID_21_" d="M469,394.4c0.4-1.7,0.7-3.5,0.9-5.5c0.4-3.2,0.4-6.2,0.3-8.8c0.4,0,3.2,0,4.5-2c0.2-0.3,0.8-1.2,0.5-1.8
		c-0.6-1.3-4.9-0.3-5.1-0.3c0.1-1.3,0.1-2.6,0.1-4.1c0-0.9-0.1-1.7-0.2-2.4c0.1-0.1,0.3-0.4,0.2-0.8c-0.1-0.5-0.6-0.9-1.3-0.9
		c-0.5-1-1-2-1.5-3.1c1.5,0.3,3.5,0.4,5.9,0.3c2.3-0.2,4.2-0.7,5.6-1.2c-0.6,5.5-1,11.6-1.1,18c0,3.4,0,6.6,0.2,9.7
		c0.1,0.5,0.3,1,0.5,1.6c0.2,0.5,0.4,0.9,0.6,1.3c-1,0-2,0-2.9,0C473.8,394.5,471.4,394.5,469,394.4z"/>
	<path id="XMLID_22_" d="M478.8,379c-0.1,0.1-0.1,0.2-0.1,0.3c0.1,0.2,0.6,0.2,0.7,0C479.5,379.2,479,378.9,478.8,379z"/>
	<path id="XMLID_23_" d="M495.6,361.9c-1.8,1.5-3.7,3-5.6,4.8c-3.3,3-6.3,6.1-8.8,8.9c-0.3,0.4-0.6,1-0.9,1.8
		c-0.3,0.7-0.4,1.3-0.5,1.8c0.5,0.2,1.4,0.5,2.3,1.3c0.6,0.6,1,1.2,1.1,1.4c0.8,1.5,3.2,5.5,6.4,10.9c1.6,0.4,3.2,0.8,4.9,1.3
		c2.7,0.8,5.3,1.7,7.6,2.6c-1.3-1.7-2.6-3.5-3.9-5.3c-2.9-4-5.6-8-8.2-11.9c-0.1-0.3-0.3-0.8-0.8-1.1c-0.2-0.2-0.8-0.5-3.3,0.2
		c-0.6,0.2-1.5,0.4-2.6,0.9c-0.8,0.2-1.6,0.1-2.1-0.4c-0.6-0.7-0.4-2.4,1-3.3c1.6-1.6,3.2-3.3,4.8-4.9c0.9-1.6,2.8-2.5,4.6-2.2
		c1.6,0.3,2.8,1.4,3.4,2.9c0.1-0.1,0.2-0.2,0.3-0.4c0.1-2.9,0.2-5.7,0.2-8.6C495.6,362.3,495.6,362.1,495.6,361.9z"/>
</g>
<path id="XMLID_33_" d="M93.5,445.6c0.3-4.3,1.4-7.5,2.3-9.6c1.1-2.8,2.7-5.3,5.8-10.2c0.9-1.5,1.7-2.7,2.3-3.5
	c0.9-0.7,1.2-1.8,1-2.7c-0.3-0.9-1.2-1.4-1.5-1.5c-0.5-0.2-1-0.3-1.3-0.3c0-0.3,0-0.6,0-0.8c1.5,0.1,3.2,0.2,5,0.2
	c1.9,0,3.6-0.1,5.1-0.3c0.2,0.5,0.4,1.1,0.6,1.6c-0.1,0.3-0.4,1.5,0.2,2.9c0.5,1,1.3,1.6,1.6,1.8c2.7,7.3,5.4,14.5,8.1,21.8
	c0.6,0.7,1.1,1.3,1.7,2c-3.4-0.3-6.9-0.5-10.3-0.8c-2.4-6.9-4.7-13.8-7.1-20.6c0.4-0.1,1-0.2,1.6-0.5c1.4-0.7,3.2-2.1,2.9-3.3
	c-0.2-0.6-0.9-0.9-1.5-1.1c-1.8-0.8-3.5-0.2-4,0c-0.4,0.9-1.1,2.4-2,4c-0.8,1.5-1.4,2.5-1.7,2.9c-0.8,1.3-3.2,5.3-3.7,9.7
	c-0.2,1.6-0.2,4.7,1.4,8.5C97.7,445.6,95.6,445.6,93.5,445.6z"/>
<path id="XMLID_47_" d="M130.1,446c0.7-2.9,1.6-6.1,2.9-9.4c2.3-6.1,5-11.2,7.6-15.3c-0.1-0.4-0.4-1.5-1.3-2.3
	c-0.6-0.5-1.1-0.7-1.5-0.9c-0.2-0.4-0.3-0.8-0.5-1.2c1.5,0.3,3.7,0.6,6.3,0.2c1.8-0.3,3.4-0.7,4.5-1.2c0.3,1.2,0.6,2.4,0.9,3.7
	c1.9,7.4,3.9,14.5,6.1,21.4c0.2,0.4,0.7,1.7,1.9,2.1c1.6,0.6,3.1-0.5,4.1-1.2c0.3-0.2,2.6-1.9,2.9-3.7c0.4-2.7-3.5-6.6-10.3-8.1
	c1-1.1,1.8-1.9,2.5-2.4c1.2-1,2-1.5,2.3-2.6c0.1-0.5,0.1-1,0-1.3c1.1,0.3,2.6,0.9,4.4,1.7c2.1,1,3.2,1.5,3.9,2.5
	c1.3,1.8,1.1,3.9,1.1,4.7c-0.1,0.6-0.2,1.9-2.7,5.8c-2.4,3.7-3.6,5.6-6.1,7c-1.3,0.8-2.5,1.1-3.3,1.3c-2.5,0.3-5.1,0.6-7.6,0.9
	c-0.3-1.1-0.6-2.1-0.9-3.2c0.4-0.1,1-0.1,1.7-0.2c1.9-0.2,2.2-0.1,2.6-0.4c1.1-0.6,1.7-2.3,1.2-3.2c-0.5-0.8-1.9-0.7-3.6-0.6
	c-1.2,0.1-2.2,0.3-3,0.5c-0.1-0.2-0.1-0.3-0.2-0.5c-0.1-1-0.2-2-0.4-3c-0.7-4.4-2-8.3-3.4-11.5c0.1,0.1,0.9,0.6,1.8,0.3
	c0.9-0.3,1.2-1.4,1.3-1.8c0.1-0.3,0.6-2.1-0.7-3.1c-0.7-0.5-1.7-0.7-2.6-0.1c-0.9,0.6-1.3,1.8-0.8,2.9c-0.6,0.6-1.4,1.4-2.3,2.5
	c-3.6,4.7-4,9.8-4.1,11.2c-0.2,3.7,0.7,6.7,1.4,8.5C134.3,446,132.2,446,130.1,446z"/>
<path id="XMLID_48_" d="M174.9,446.8c0-0.2,0-0.4,0-0.6c0.3-0.3,0.7-0.8,0.9-1.5c0.2-0.6,0.3-1.2,0.3-1.5c0.1-1.8,0.2-3.4,0.3-4.6
	c0.2-3.5,0.2-4.5,0.3-5.8c0-1.1,0-2.2,0-3.3c0.4-0.3,1.2-0.9,2.3-1.2c0.7-0.2,1.3-0.1,1.8-0.1c0-0.1-0.3-1,0.2-1.8
	c0.5-0.9,1.4-1,1.6-1.1c0.4-1.2,0-1.8-0.1-1.9c-0.7-1-2.8-1.2-5,0.1c-0.2-0.9-0.4-1.9-0.8-3.1c-0.3-1-0.7-1.8-1.1-2.5
	c4-0.3,8-0.6,11.9-0.9c0.2,3.9,0.7,8.3,1.6,13c0.6,3,1.3,5.8,2,8.4c0.2,0.3,1.1,2,2.9,2.5c1.9,0.5,3.5-0.7,4-1.1
	c1.2-0.9,1.8-2,3.8-9.1c0.9-3.2,1.4-4.9,1.7-6.6c0.4-2.1,0.7-4.4,0.9-6.8c3.7-0.2,7.4-0.4,11.1-0.6c-0.2,0.3-0.4,0.6-0.5,1.1
	c-0.2,0.6-0.2,1.1-0.3,1.5c0,4.1,0,8.3,0,12.4c-0.4,0.1-1.4,0.3-2.1,1.3c-0.2,0.3-0.9,1.1-0.6,1.8c0.3,0.7,1.4,1.2,2.9,0.9
	c0,3.1,0.1,6.2,0.1,9.3c0,0.2,0.2,0.7,0.6,1.2c0.3,0.4,0.7,0.6,1,0.7c0,0.2,0,0.3,0,0.5c-3.5-0.2-7-0.4-10.5-0.5
	c0.1-0.2,0.3-0.5,0.4-0.9c0.2-0.7,0.1-1.2,0-1.5c0.3-6.9,0.6-13.8,0.9-20.6c-0.1-0.3-0.3-0.9-0.4-1.6c-0.2-1.6,0.2-2.5-0.3-3
	c-0.2-0.2-0.5-0.4-1.3-0.3c-0.4,2.7-0.8,4.9-1.2,6.6c-1.2,5.8-2.3,9.3-2.6,10.3c-0.8,2.4-1.2,3.6-1.8,4.8c-1.8,3.2-4.2,5.2-5.9,6.3
	c-1-1.7-1.9-3.6-2.8-5.7c-2.1-5.1-3-9.8-3.3-13.4c-0.2-2.3-0.4-4.5-0.6-6.8c0-0.2-0.6-2.2-1.3-2.2c-0.7,0-1,2.3-1.2,3.1
	c-0.8,4.8-0.7,14.5-0.5,22.5c0.1,0.2,0.2,0.6,0.5,0.9c0.2,0.3,0.4,0.5,0.5,0.6c0,0.2,0,0.4,0,0.7
	C181.7,446.6,178.3,446.7,174.9,446.8z"/>
<path id="XMLID_49_" d="M224.9,447c1.7-0.2,3.6-0.3,5.6-0.2c1.3,0,2.6,0.2,3.8,0.3c0.1-4.4,0.3-8.8,0.4-13.2
	c0.5-0.7,0.6-1.2,0.6-1.6c0-0.4-0.2-0.6-0.5-1.3c-0.2-0.5-0.4-1-0.4-1.3c0-0.1,0.6-1.1,1.7-1.2c0.9-0.1,1.7,0.3,2.2,1.1
	c1.4,0.2,2.9,0.5,4.7,1.1c1.8,0.6,3.3,1.2,4.6,1.9c0,1.3,0,2.7,0,4.1c0,3-0.1,6-0.3,8.8c-0.1,0.3-0.2,0.6-0.4,0.9
	c-0.2,0.3-0.3,0.6-0.5,0.8c3.3-0.1,6.6-0.2,9.9-0.3c-0.1-0.1-0.3-0.3-0.5-0.6c-0.2-0.3-0.3-0.5-0.3-0.7c0.1-5.9,0.2-11.8,0.3-17.8
	c-0.9-0.2-1.6-1.1-1.6-2c0-1,0.6-1.8,1.5-2.1c0.1-0.9,0.3-2,0.8-3.2c0.4-1.1,0.9-2,1.3-2.7c-3.3-0.2-6.6-0.3-9.9-0.5
	c0.1,3.5,0.1,7,0.2,10.4c0.2,0.6,0.1,1.2-0.3,1.7c-0.4,0.5-1.1,0.6-1.7,0.4c-2.7-0.7-5.4-1.5-8.1-2.2c-0.5-0.1-1.3-0.4-1.9-1.1
	c-1.2-1.2-1.5-3.2-0.8-5.1c0.1-1.4,0.3-2.9,0.4-4.3c-1.2,0.1-2.4,0.2-3.7,0.2c-2.2,0-4.2,0-6.1-0.2c0.5,2.9,1,5.8,1.5,8.6
	c1.7-0.1,3.3,0.6,4,1.8c1,1.8-0.1,4.9-3.1,6.1c-0.2,2.8-0.7,6.1-1.8,9.7C225.8,444.8,225.3,445.9,224.9,447z"/>
<path id="XMLID_50_" d="M266.8,447.2c3,0.1,5.9,0.1,8.9,0.2c-0.1-0.3-0.3-0.7-0.4-1.1c-0.2-0.6-0.2-1.2-0.3-1.6
	c0.1-5.3,0.3-10.7,0.4-16c0.1-0.2,0.3-0.4,0.6-0.6c0.8-0.5,1.6-0.2,1.8-0.2c2.5,0.4,4.9,0.9,7.4,1.3c0.2,0,1.1,0,1.8,0.8
	c0.6,0.7,0.7,1.7,0.3,2.5c-0.3,4.2-0.6,8.5-0.8,12.7c0,0.1,0,0.3,0,0.5c-0.1,0.4-0.4,0.6-0.5,0.7c0.1,0.3,0.2,0.5,0.3,0.8
	c2.2,0.1,4.4,0.1,6.6,0.2c1.4,0.2,3.9,0.4,6.8-0.6c2.2-0.7,3.6-1.7,4.4-2.3c3.5-2.6,5-5.8,6-7.8c1.3-2.8,2-4.3,1.5-6
	c-0.5-1.5-1.7-2.4-3.8-4c-1.7-1.3-3.2-2.1-4.2-2.6c-0.6,0.8-1.3,1.7-2.1,2.6c-1.2,1.3-2.4,2.3-3.4,3c1.9,0.9,3.5,1.8,4.5,2.5
	c2.8,1.9,3.3,2.9,3.4,3.2c0.7,1.6,0.3,3.2,0.1,4c-1,3.9-4.6,5.6-5.7,6c-1.2,0.5-3.1,1.3-4.4,0.3c-0.7-0.5-1-1.4-1-2
	c0.3-2,0.5-4,0.8-6c-0.2,0.1-2.3,1-4.1-0.1c-0.3-0.2-1.3-0.8-1.4-1.8c-0.1-1.4,2-3.2,5.5-3.9c-0.1-0.5-0.4-1.4-0.5-2.6
	c-0.3-2.4,0.1-3.9,0.5-8.3c0.1-0.7,0.2-1.9,0.3-3.4c-3.6,0.1-7.1,0.2-10.7,0.3c0.1,0.2,0.3,0.4,0.4,0.7c0.3,0.3,0.9,0.7,1.3,1.5
	c0.6,1,0.7,1.9,0.7,2.4c0,0.7,0,1.4,0,2.1c0,1,0,2,0,3c-3.5-0.3-7-0.6-10.5-0.9c-0.4,0-0.7-0.2-0.9-0.3c-0.7-0.4-1-1.4-0.8-2.4
	c0.1-2.2,0.3-4.4,0.4-6.6c-0.9,0-1.9,0.1-2.8,0.1c-2.5,0-4.9-0.1-7.2-0.3c0.4,0.9,0.7,1.8,1.1,2.6c3.3-1.4,6.1-1.5,6.8-0.4
	c0.5,0.7,0.2,2.1-0.5,2.8c-0.5,0.6-1.2,0.6-2.5,0.8c-1.2,0.1-2.2,0.1-2.9,0c0.4,7.3,0.2,14.9-0.7,22.8
	C266.9,446.3,266.8,446.7,266.8,447.2z"/>
<path id="XMLID_72_" class="st0" d="M336.6,444c-0.1,0.2-0.8,1.8-2.6,2.3c-1.9,0.5-3.3-0.6-3.4-0.8c-2.4,1-4.4,0.9-5.5,0.8
	c-1-0.1-1.8-0.2-2.2-0.8c-0.7-1,0.3-3.2,2.5-5.6c-1-0.9-2.6-2.8-3.3-5.7c-1.4-6.5,4.1-11.6,4.4-11.9c1.1,0.2,6.4,1.6,9.6,6.7
	C340.4,436,336.9,443.5,336.6,444z"/>
<path id="XMLID_77_" d="M340.4,421.5c-2.2,2.1-3,2.5-3.1,2.4c-0.3-0.2,0.7-1.3,0.4-3c-0.1-0.8-0.5-1.4-0.6-1.5
	c-0.7-1-1.5-1.1-2.6-1.9c-0.5-0.4-1.2-1.1-1.8-2.4c-0.7,0.9-1.6,1.9-2.7,2.9c-1.2,1.1-2.4,2-3.4,2.6c-1.7,1.4-4.2,3.7-6.1,7.4
	c-1.1,2-3.5,6.6-2.8,12.1c1.1,8.7,9.3,13.3,10.4,13.8c0.8-0.9,2-2.2,3.5-3.7c2.9-3,4.4-4,5.7-5.3c0.7-0.7,6.8-6.7,6.3-14.7
	C343.5,428.6,343.1,425.2,340.4,421.5z M336.6,444c-0.1,0.2-0.8,1.8-2.6,2.3c-1.9,0.5-3.3-0.6-3.4-0.8c-2.4,1-4.4,0.9-5.5,0.8
	c-1-0.1-1.8-0.2-2.2-0.8c-0.7-1,0.3-3.2,2.5-5.6c-1-0.9-2.6-2.8-3.3-5.7c-1.4-6.5,4.1-11.6,4.4-11.9c1.1,0.2,6.4,1.6,9.6,6.7
	C340.4,436,336.9,443.5,336.6,444z"/>
<path id="XMLID_71_" class="st0" d="M336.6,444c-0.1,0.2-0.8,1.8-2.6,2.3c-1.9,0.5-3.3-0.6-3.4-0.8c-2.4,1-4.4,0.9-5.5,0.8
	c-1-0.1-1.8-0.2-2.2-0.8c-0.7-1,0.3-3.2,2.5-5.6c-1-0.9-2.6-2.8-3.3-5.7c-1.4-6.5,4.1-11.6,4.4-11.9c1.1,0.2,6.4,1.6,9.6,6.7
	C340.4,436,336.9,443.5,336.6,444z"/>
<path id="XMLID_56_" d="M352.2,447.9c0.4-1,1-2.4,1.4-4.3c0.9-3.7,0.5-6.2,0.4-10.9c-0.1-2.1-0.1-5.1,0.1-8.7c0-0.8-0.1-1.9-0.4-3.1
	c-0.4-1.8-1.2-3.1-1.8-3.9c5.6,0.3,11.7,0.5,18,0.4c5.1-0.1,9.9-0.3,14.5-0.6c-0.3,3.7-0.6,7.6-0.8,11.5c-0.3,5.3-0.5,10.4-0.6,15.3
	c0.4,1.3,0.8,2.6,1.2,3.9c-0.8-0.1-1.7-0.2-2.7-0.3c-2.8-0.1-5.3,0.3-7.2,0.8c0.3-1.7,0.5-3.7,0.5-5.9c0-2.5-0.1-4.7-0.4-6.6
	c0.4-0.3,1.1-0.7,1.9-1.1c2-1,2.9-1,3.4-1.8c0.4-0.7,0.4-1.7,0-2.4c-0.6-1.1-2.3-1.5-3.9-0.9c-0.1-2.8-0.2-5.5-0.3-8.3
	c0-0.1,0-0.9-0.6-1.5c-0.5-0.5-1.2-0.5-1.3-0.5c-1.3-0.1-2.6-0.1-3.9-0.2c-1.8-0.1-3.6-0.2-5.4-0.3c-0.1,0-1.6-0.2-2.5,0.9
	c-0.7,0.9-0.8,2.2-0.2,3.2c0,3-0.1,6.1-0.1,9.1c0.9,1.4,0.8,2.2,0.6,2.6c-0.5,1.2-2,1-2.9,2.5c-0.1,0.2-0.8,1.4-0.3,2.3
	c0.4,0.8,1.8,1.2,3.3,0.8c-0.2,0.9-0.4,2.1-0.4,3.4c0,1.4,0.1,2.7,0.3,3.7c-1.4-0.1-3.2-0.2-5.1-0.1
	C355.2,447.4,353.6,447.6,352.2,447.9z"/>
<path id="XMLID_83_" d="M407.6,410.4c-0.3,0-1.2-0.1-2-0.8c-0.8-0.7-1-1.7-1-1.9c-0.4,0-0.7,0-1.1,0.1c0,0.3,0,1.1-0.5,1.8
	c-0.7,1.2-1.9,1.5-2.2,1.5c-3.1,3-6.1,6-9.2,9c0.6-0.6,2.2-1.7,3.9-1.3c1.5,0.4,2.2,1.8,2.8,2.8c0.7,1.4,0.9,2.7,0.9,3.5
	c0,4.2,0,8.4,0.1,12.6c0,0.2,0.3,1.7-0.8,2.8c-0.4,0.4-0.9,0.6-1.2,0.7c-1,0.4-2,0.9-3.2,1.5c-1.8,1-3.3,2.2-4.5,3.2
	c1.9-0.1,4.6,0,7.1,1.2c0.9,0.4,1.5,0.8,1.9,1.5c0.9,1.4,0.5,3.1,0.3,3.6c-0.2,5.2-0.3,10.4-0.5,15.6c0.4-0.9,1.2-2.3,2.7-3.7
	c1.6-1.4,3.3-2.1,4.2-2.3c-0.1-0.3-0.2-0.6-0.3-0.9c-0.6,0-1.4-0.1-2.3-0.6c-0.4-0.2-1.7-1.1-2.3-5.1c-0.3-1.7-0.5-4.2,0-7.4
	c1.1-0.6,2.6-1.4,4.4-2.6c2.7-1.7,5.6-3.5,8-5.8c1-1,5.2-5,6.2-9.6C420.4,423.2,415.6,415.6,407.6,410.4z M412.5,438.2
	c-0.6,1.1-1.8,2.1-2.2,2.4c-2.4,2-4.9,2.7-6.3,3c-0.2,0.1-0.9,0.7-1.8,0.4c-0.6-0.2-0.9-0.6-1.1-0.9c-1.1-1.7-0.8-4.6-0.8-5.3v-17.4
	c-0.3-0.8-0.3-1.7,0.2-2.1c0.6-0.5,2-0.2,3.1,1.2c1.4,0.4,2.5,0.4,3.3,0.3c1.6-0.2,2.4-0.8,3.5-0.4c0.8,0.3,1.2,1,1.5,1.4
	c0.2,0.3,1.6,2.5,0.5,4c-0.7,0.9-2,1.2-3.3,0.9C412.7,430.2,414.3,435.1,412.5,438.2z"/>
<path id="XMLID_78_" class="st0" d="M412.5,438.2c-0.6,1.1-1.8,2.1-2.2,2.4c-2.4,2-4.9,2.7-6.3,3c-0.2,0.1-0.9,0.7-1.8,0.4
	c-0.6-0.2-0.9-0.6-1.1-0.9c-1.1-1.7-0.8-4.6-0.8-5.3v-17.4c-0.3-0.8-0.3-1.7,0.2-2.1c0.6-0.5,2-0.2,3.1,1.2c1.4,0.4,2.5,0.4,3.3,0.3
	c1.6-0.2,2.4-0.8,3.5-0.4c0.8,0.3,1.2,1,1.5,1.4c0.2,0.3,1.6,2.5,0.5,4c-0.7,0.9-2,1.2-3.3,0.9C412.7,430.2,414.3,435.1,412.5,438.2
	z"/>
<path id="XMLID_74_" class="st0" d="M412.5,438.2c-0.6,1.1-1.8,2.1-2.2,2.4c-2.4,2-4.9,2.7-6.3,3c-0.2,0.1-0.9,0.7-1.8,0.4
	c-0.6-0.2-0.9-0.6-1.1-0.9c-1.1-1.7-0.8-4.6-0.8-5.3v-17.4c-0.3-0.8-0.3-1.7,0.2-2.1c0.6-0.5,2-0.2,3.1,1.2c1.4,0.4,2.5,0.4,3.3,0.3
	c1.6-0.2,2.4-0.8,3.5-0.4c0.8,0.3,1.2,1,1.5,1.4c0.2,0.3,1.6,2.5,0.5,4c-0.7,0.9-2,1.2-3.3,0.9C412.7,430.2,414.3,435.1,412.5,438.2
	z"/>
<path id="XMLID_57_" d="M451.7,441.8c-1.5,0.9-3.5,2.3-5.5,4.5c-1.5,1.7-2.5,3.3-3.2,4.6c-1.3,0.2-4.7,0.5-8.3-1.4
	c-2.3-1.2-3.7-2.8-4.4-3.8c1.3-1.5,2.4-2.9,3.7-4.4c0.5-0.6,1.1-1.3,0.8-1.9c-0.2-0.5-0.8-0.8-1.3-0.8c-0.7,0-1.3,0.6-1.5,1.3
	c-0.5-0.1-1.2-0.1-1.6,0.3c-0.4,0.4-0.1,1-0.4,1.7c-0.2,0.4-0.6,0.8-1.7,1.1c-0.7-1.3-1.7-3.4-1.8-6.2c0-3.7,1.7-6.3,4.5-10.5
	c1.3-1.9,3.2-4.8,6.8-7.8c2.7-2.2,5.2-3.7,7.2-4.6c0.9-0.1,1.7,0.2,2.1,0.9c0.4,0.7,0.2,1.4,0.2,1.6c-0.5,0.3-1.9,1.3-2.7,3.1
	c-1,2.3-0.3,4.3-0.2,4.8c-0.1,0.2-0.2,0.4-0.3,0.7c-0.7-0.8-1.8-2-3.7-2.9c-1.5-0.7-2.5-1.2-3.6-1c-3.2,0.7-4.1,7.2-4.3,8.3
	c-0.2,1.3-0.4,2.9,0.2,5c0.8,3.4,3.4,6.9,7.4,8.5C446.1,445.4,451.2,442.1,451.7,441.8z"/>
<path id="XMLID_65_" d="M457,431.3c0.3-2,0.8-4.2,1.3-6.5c0.4-1.4,0.8-2.8,1.2-4.1c0.2-0.4,0.6-1,1.3-1.5c0.7-0.4,1.3-0.5,2.3-0.6
	c1.2-0.1,1.7-0.2,2.3,0.2c0.7,0.5,0.5,1.1,1.1,2c1.1,1.6,3,1.2,3.5,2.3c0.3,0.6,0.2,1.7-1.7,3.9c-0.2,0.1-0.5,0.3-1,0.3
	c-0.9,0.1-1.6-0.5-1.8-0.6c0.2,3.6,0.1,7.5-0.2,11.8c-0.2,2.9-0.5,5.6-0.9,8.2c1.2-0.2,2.8-0.4,4.5-0.4c2,0,3.8,0.3,5.2,0.6
	c-0.3-0.7-0.6-1.7-0.9-3c-0.9-3.8-0.7-6.5-0.5-12.8c0.1-1.6,0.1-4.1,0.2-7.2c-0.1-1.5-0.1-2.9-0.2-4.4c0.2-0.2,0.6-0.5,1-0.8
	c1-0.6,2.1-0.6,2.6-0.6c0.2,0,1.9-0.2,3.1,1c0.9,1,1,2.1,1,2.4c0.6,1,1.3,2.1,1.9,3.4c0.9,1.9,1.5,3.6,1.8,5.1
	c0.1-2.6,0.5-5.5,1.2-8.7c0.4-1.8,0.8-3.4,1.3-4.9c-6.1,0.4-12.5,0.6-19.1,0.8c-5.1,0.1-10,0.1-14.8,0c0.8,2.1,1.5,4.4,2.3,6.8
	C455.8,426.6,456.4,429,457,431.3z"/>
<path id="XMLID_66_" d="M136.6,498.9c0.3-0.7,0.6-1.8,0.6-3.1c0-1.1-0.1-2-0.3-2.7c1,0.2,1.4-0.1,1.6-0.3c0.4-0.3,0.3-0.7,0.7-1.9
	c0.3-0.9,0.5-1.1,0.4-1.4c-0.1-0.2-0.3-0.8-2.1-1.2c0.4-1.5,0.9-3.4,1-5.7c0.2-3.1-0.3-5.6-0.8-7.4c0.3-0.1,0.6-0.3,0.9-0.4
	c0,1.2,0.7,2.2,1.6,2.4c0.6,0.1,1.4,0,1.8-0.5c0.4-0.4,0.4-0.9,0.6-2.2c0.1-0.6,0.2-1.5,0.4-2.6c-0.2-0.8-0.9-1.4-1.7-1.6
	c-0.8-0.1-1.6,0.3-2,0.9c-0.4,0-0.9,0-1.3-0.4c-0.4-0.4-0.3-0.8-0.7-1.2c-0.5-0.6-1.7-0.7-2.6-0.2c-1.2,0.7-1.3,2.1-1.3,2.2
	c-0.9,2.1-1.8,4.1-2.6,6.2c0-1.3-0.1-3.3-0.8-5.4c-0.6-1.7-1.3-3.1-1.9-4.1c3.3,0.1,6.6,0.1,9.9,0.2c0.1-0.6,0.2-1.3,0.1-2.1
	c0-1.4-0.3-2.5-0.6-3.4c2.9,0,5.9,0,8.8,0.1c-0.2,0.7-0.3,1.5-0.4,2.4c-0.1,1.1-0.1,2,0,2.8c5.2,0.2,10.4,0.4,15.6,0.6
	c-0.9,1.2-1.8,2.6-2.7,4.3c-0.8,1.5-1.4,2.9-1.8,4.1c0.1-0.8,0.3-4.4-2.2-6.6c-0.3-0.3-0.8-0.6-1.3-0.9c-2.5-0.1-5.1-0.2-7.6-0.3
	c-0.1,3.9-0.2,7.8-0.3,11.8c0.1,0.1,0.2,0.3,0.6,0.5c0.3,0.1,0.5,0.1,0.6,0.1c2.6-0.5,5.3-1.1,7.9-1.6c2.6-1.3,5.6-1,7.7,0.7
	c2.3,1.8,2.5,4.6,2.6,5.1c0,2.8-0.1,5.6-0.1,8.4c-1.2,0.5-2.1,0.8-2.8,1c-1.2,0.4-2,0.5-2.4,1.2c0,0-0.5,0.8-0.3,1.2
	c0.1,0.2,0.4,0.4,2.8-0.1c0.8-0.2,1.9-0.5,3.2-0.9c0.2,0.5,0.4,1.1,0.8,1.7c0.3,0.4,0.6,0.8,0.8,1.1c-3.4,0-6.8,0-10.1,0
	c0.1-1.2,0.3-2.5,0.4-3.7c0.2-0.3,0.6-1.2,0.4-2.3c-0.1-0.6-0.3-1-0.5-1.3c0-1.2,0-2.5,0-3.7c-0.4-3.3-2.5-5.9-5.2-6.4
	c-1.7-0.3-3.6,0.1-4.9,1.3c-1.9,1.7-1.9,4.5-1.8,9.3c0.1,2.7,0.4,4.8,0.6,6.3C143,499.2,139.8,499,136.6,498.9z"/>
<path id="XMLID_67_" d="M172.1,472.8c-0.2-0.5-0.4-1.1-0.8-1.8c-0.5-0.9-1.1-1.5-1.6-1.9c2.1,0.1,4.5,0.1,7.1,0
	c2.3-0.1,4.4-0.3,6.3-0.6c-0.2,0.7-0.4,1.6-0.4,2.8c0,1.4,0.3,2.5,0.4,2.9c0.6,2,2.9,9.1,6.1,18.8c0.5,0.2,1,0.1,1.4-0.2
	c0.2-0.2,0.3-0.4,0.3-0.5c0.4-3.7,0.9-7.4,1.3-11.1c0.5-2.8,1.4-5,2.1-6.5c1.2-2.4,2-4.2,4-5.6c2-1.3,4.1-1.5,5.3-1.6
	c-0.4,1.6-0.9,3.9-0.8,6.7c0.1,1.9,0.4,3.6,0.8,4.9c-0.1,0-0.3,0-0.4,0.1c0-0.5,0-2-1-2.9c-1.5-1.4-4.1-0.4-5.2,0.2
	c-2.6,1.5-3.8,5-3.4,9c-0.1,0-0.5-0.2-0.9,0.1c-0.4,0.2-0.6,0.6-0.6,0.7c0.2,1,0.5,2,0.7,2.9c-0.7,3.4-1.2,7.1-1.4,11.2
	c-0.1,1.9-0.2,3.8-0.2,5.6c-0.1,0.3-0.6,2.2,0.6,4.1c1.1,1.9,3.1,2.3,3.4,2.4c-0.9,0.6-1.9,1.3-3,2.3c-1.4,1.3-2.4,2.7-3.1,3.8
	c0.3-1.8,0.6-3.8,0.8-5.8c0.4-4.8,0.4-9.1,0.1-12.9c-0.6-0.2-1.4-0.4-2.3-0.4c-2.1-0.1-3.7,0.5-4.6,0.9c-2.1-7-4.2-14-6.3-20.9
	c0.2-0.5,1.5-3.3,0.1-5.8c-0.7-1.2-2.4-2.8-3.6-2.3C172.4,471.5,172.2,472.3,172.1,472.8z"/>
<path id="XMLID_94_" d="M240.6,477.6c-0.7-1.6-1.3-2.8-2.6-3.6c-2.9-1.8-8.2-1.4-9.7-1.3c-0.8,0.1-2.2,0.2-2.9-0.6
	c-0.5-0.6-0.5-1.5-0.4-2.2c-0.2-1.6-0.3-3.9-0.1-6.7c0.3-3.8,1-6.5,0.3-6.7c-0.4-0.1-0.8,0.7-2.8,2.5c-0.9,0.8-1.6,1.3-2.8,2.2
	c-0.9,0.7-2.1,1.5-3.4,2.3c-0.3,0.3-0.3,0.6-0.2,0.8c0.1,0.1,0.5,0.1,0.8-0.2c0.5-0.3,1.5-0.9,2.9-0.9c0.6,0,1.7,0,2.5,0.7
	c0.5,0.5,0.7,1.3,1,2.8c0.3,1.5,0.6,3.2,0.8,3.8c0.1,0.1,0.3,0.8,0,1.5c-0.4,0.7-1.3,1.2-2.3,1c-1.7,0.1-5.1,0.5-8.4,2.8
	c-0.8,0.6-7.3,5.2-6.5,11.8c0,0.4,0.6,4.4,3.9,6.8c0.1,0.1,3.1,2.2,6.5,2.1c1.3,0,2.5,0,3.8,0c0.8,0,1.8-0.2,2.3,0.3
	c0.3,0.3,0.3,0.7,0.3,1c0,1.3,0,3.2-0.1,5.5c-0.1,3.6-0.1,5.4-0.3,7.3c-0.1,1.8-0.4,4.5-1,7.6c0,0.1-0.2,0.3-0.2,0.6
	c0,0.3,0.1,0.6,0.3,0.6c0.1,0,0.2-0.1,0.4-0.9c0.5-0.7,1.2-1.7,2.2-2.7c0.9-0.9,1.6-1.4,2-1.8c1.1-0.9,2.7-2.3,4.6-4.3
	c0.3-0.5,0.3-1.1,0.1-1.2c-0.2-0.1-0.5,0-0.8,0.3c-0.4,0.2-1.1,0.5-1.9,0.7c-0.6,0.1-2.2,0.4-3.2-0.3c-0.4-0.3-0.7-0.8-1.2-3.8
	c-0.3-2.2-0.3-3.8-0.3-7.1c0-0.5,0-1,0.3-1.4c0.7-1.1,2.3-1,3.7-1.2c3.4-0.3,5.9-1.6,7.6-2.5c0,0,2.5-1.3,3.9-3
	c0.4-0.5,0.8-1,1.1-1.7C240.8,487.9,243.1,482.8,240.6,477.6z M223.3,494.4c0,0,0,0.4-0.2,0.6c-0.3,0.3-0.6,0.3-0.6,0.3
	c-0.3,0.1-0.8,0.1-1.3,0.1c-0.4,0-0.8-0.1-1.1-0.2c-0.2-0.1-0.4-0.3-0.7-0.6c-0.2-0.2-0.3-0.4-0.4-0.6c-0.2-0.1-0.5-0.3-0.8-0.4
	c-0.5-0.3-0.9-0.5-1.4-0.6c-0.3-0.4-0.8-0.9-1.2-1.6c-0.7-1.2-2.6-4.6-1.8-9c0.2-1.3,1-5.3,4.5-7.3c1.8-1,3.5-1.1,4.5-1.1
	c0,0,0.5,0,0.8,0.4c0.2,0.2,0.2,0.4,0.2,0.5C223.7,481.5,223.5,488,223.3,494.4z M238.1,487.1c-0.5,1.2-2.3,1.8-4,1.1
	c-0.3-0.1-0.6-0.1-0.7,0.1c-0.2,0.2-0.2,0.5-0.2,0.5c0,0.5-0.1,1.2-0.5,2c-0.6,1.4-1.7,2-2.5,2.6c-1.9,1.2-3.8,1.5-5,1.6
	c-0.2,0-0.3,0-0.4-0.1c-0.4-0.2-0.7-0.8-0.6-1.4c0.2-6.2,0.5-12.3,0.7-18.5c0-0.2,0.1-0.7,0.5-1c0.1,0,0.3-0.2,1.2-0.2
	c0.5,0,1,0.1,1.3,0.1c0.9,0.2,3.2,1.4,4.6,3.8c1.6,2.8,1.3,5.6,1.1,6.5c-0.2,0.4-0.1,0.8,0.1,0.9c0.2,0.1,0.5-0.1,0.7-0.4
	c0.6-0.6,1.2-1.2,1.8-1.8c0.2-0.1,0.5-0.3,1-0.2c0.6,0.1,1.1,0.7,1.2,1.3c0,0.3-0.1,0.5-0.2,0.6C238,485,238.6,486.1,238.1,487.1z"
	/>
<path id="XMLID_88_" class="st0" d="M223.8,475c-0.2,6.5-0.4,13-0.5,19.5c0,0,0,0.4-0.2,0.6c-0.3,0.3-0.6,0.3-0.6,0.3
	c-0.3,0.1-0.8,0.1-1.3,0.1c-0.4,0-0.8-0.1-1.1-0.2c-0.2-0.1-0.4-0.3-0.7-0.6c-0.2-0.2-0.3-0.4-0.4-0.6c-0.2-0.1-0.5-0.3-0.8-0.4
	c-0.5-0.3-0.9-0.5-1.4-0.6c-0.3-0.4-0.8-0.9-1.2-1.6c-0.7-1.2-2.6-4.6-1.8-9c0.2-1.3,1-5.3,4.5-7.3c1.8-1,3.5-1.1,4.5-1.1
	c0,0,0.5,0,0.8,0.4C223.8,474.6,223.8,474.9,223.8,475z"/>
<path id="XMLID_89_" class="st0" d="M238.1,487.1c-0.5,1.2-2.3,1.8-4,1.1c-0.3-0.1-0.6-0.1-0.7,0.1c-0.2,0.2-0.2,0.5-0.2,0.5
	c0,0.5-0.1,1.2-0.5,2c-0.6,1.4-1.7,2-2.5,2.6c-1.9,1.2-3.8,1.5-5,1.6c-0.2,0-0.3,0-0.4-0.1c-0.4-0.2-0.7-0.8-0.6-1.4
	c0.2-6.2,0.5-12.3,0.7-18.5c0-0.2,0.1-0.7,0.5-1c0.1,0,0.3-0.2,1.2-0.2c0.5,0,1,0.1,1.3,0.1c0.9,0.2,3.2,1.4,4.6,3.8
	c1.6,2.8,1.3,5.6,1.1,6.5c-0.2,0.4-0.1,0.8,0.1,0.9c0.2,0.1,0.5-0.1,0.7-0.4c0.6-0.6,1.2-1.2,1.8-1.8c0.2-0.1,0.5-0.3,1-0.2
	c0.6,0.1,1.1,0.7,1.2,1.3c0,0.3-0.1,0.5-0.2,0.6C238,485,238.6,486.1,238.1,487.1z"/>
<path id="XMLID_86_" class="st0" d="M223.3,494.4c0,0,0,0.4-0.2,0.6c-0.3,0.3-0.6,0.3-0.6,0.3c-0.3,0.1-0.8,0.1-1.3,0.1
	c-0.4,0-0.8-0.1-1.1-0.2c-0.2-0.1-0.4-0.3-0.7-0.6c-0.2-0.2-0.3-0.4-0.4-0.6c-0.2-0.1-0.5-0.3-0.8-0.4c-0.5-0.3-0.9-0.5-1.4-0.6
	c-0.3-0.4-0.8-0.9-1.2-1.6c-0.7-1.2-2.6-4.6-1.8-9c0.2-1.3,1-5.3,4.5-7.3c1.8-1,3.5-1.1,4.5-1.1c0,0,0.5,0,0.8,0.4
	c0.2,0.2,0.2,0.4,0.2,0.5C223.7,481.5,223.5,488,223.3,494.4z"/>
<path id="XMLID_85_" class="st0" d="M238.1,487.1c-0.5,1.2-2.3,1.8-4,1.1c-0.3-0.1-0.6-0.1-0.7,0.1c-0.2,0.2-0.2,0.5-0.2,0.5
	c0,0.5-0.1,1.2-0.5,2c-0.6,1.4-1.7,2-2.5,2.6c-1.9,1.2-3.8,1.5-5,1.6c-0.2,0-0.3,0-0.4-0.1c-0.4-0.2-0.7-0.8-0.6-1.4
	c0.2-6.2,0.5-12.3,0.7-18.5c0-0.2,0.1-0.7,0.5-1c0.1,0,0.3-0.2,1.2-0.2c0.5,0,1,0.1,1.3,0.1c0.9,0.2,3.2,1.4,4.6,3.8
	c1.6,2.8,1.3,5.6,1.1,6.5c-0.2,0.4-0.1,0.8,0.1,0.9c0.2,0.1,0.5-0.1,0.7-0.4c0.6-0.6,1.2-1.2,1.8-1.8c0.2-0.1,0.5-0.3,1-0.2
	c0.6,0.1,1.1,0.7,1.2,1.3c0,0.3-0.1,0.5-0.2,0.6C238,485,238.6,486.1,238.1,487.1z"/>
<path id="XMLID_103_" class="st0" d="M274,474.3c0,0-0.1,0.1-0.2,0.1c0,0,0,0.1-0.1,0.1c0,0-0.1,0-0.1,0c0-0.1,0-0.1,0-0.2
	c-0.1-0.1-0.1-0.1-0.1-0.2c0,0,0.1,0,0.2,0C273.9,474.1,274,474.2,274,474.3z"/>
<path id="XMLID_104_" class="st0" d="M275.4,473.5c0,0,0,0.3-0.2,0.5c-0.1,0.1-0.1,0.1-0.2,0.1c0-0.2,0-0.4,0-0.7
	c0.1-0.2,0.3-0.3,0.3-0.3C275.4,473.2,275.5,473.3,275.4,473.5z"/>
<path id="XMLID_105_" class="st0" d="M276.4,473.2c0,0.2,0,0.5,0,0.7c-0.3-0.2-0.5-0.3-0.8-0.5c0.1-0.2,0.1-0.3,0.2-0.5
	c0,0,0,0,0.1,0c0.2,0,0.3-0.5,0.3-0.5C276.3,472.6,276.4,472.9,276.4,473.2z"/>
<path id="XMLID_106_" class="st0" d="M276.8,471.8c0,0.1-0.1,0.1-0.1,0.1c0,0-0.1-0.3-0.3-0.3c-0.2-0.1-0.3,0-0.4,0
	c-0.2-0.2-0.5-0.3-0.7-0.5c0,0-0.1-0.1-0.1-0.3c0-0.2,0.2-0.3,0.4-0.3c0.2,0.1,0.3,0.2,0.5,0.3c0.2,0.1,0.4,0.3,0.6,0.4
	c0,0.1,0,0.2,0,0.2C276.8,471.7,276.8,471.7,276.8,471.8z"/>
<g id="XMLID_3_">
	<path id="XMLID_111_" d="M279,468.3c-0.1-0.2-0.1-0.3-0.2-0.3c-0.4,0-0.8,0-1.3,0c-0.3,0-0.7,0-1.3,0.3c-0.5,0.2-0.8,0.5-1,0.7
		c-0.1,0.2-0.2,0.4-0.2,0.7c0,0.2-0.1,0.4,0,0.6c-0.1,0-0.2-0.1-0.3-0.1c-0.4-0.1-0.7,0-0.9,0.1c-1,1.2-1.9,2.3-2.9,3.5
		c-1.4,1.9-2.8,3.7-4.2,5.6c-0.3,0.6-0.9,1-1.5,1c-0.5,0-0.9-0.4-1.1-0.6c-0.4-0.4-0.6-0.9-0.7-1.1c-0.9-1.4-1.9-3-2.8-5
		c-0.6-1.2-1-2.4-1.3-3.5c-0.2-0.2-0.3-0.3-0.5-0.5c-0.7,0.1-1.3,0.1-2,0.2c-0.8,0.1-1.7,0.3-2.7,0.3c-1.8,0.1-3.5,0-4.9-0.1
		c-0.1,0-1.2,0.1-1.3,0.5c0,0.3,0.6,0.8,1.7,1.1c0.1,0,0.4,0,0.8,0.3c0.3,0.2,0.4,0.5,0.4,0.6c0.7,0.9,1.4,1.9,2.1,2.8
		c2.4,3.3,4.5,6.6,6.5,9.8c0.1,0.1,0.3,0.3,0.4,0.7c0.1,0.6-0.2,1.1-0.3,1.1c-1.1,2-2.2,3.6-3.1,4.7c-1.7,2.1-3,3.3-4.8,4.9
		c-0.4,0.3-0.8,0.7-1.6,1.1c-0.5,0.3-2.6,1.3-4,0.5c-0.3-0.2-1.1-0.7-1.6-1.5c-0.2-0.4-0.5-0.6-0.6-0.6c-0.1,0.1-0.1,0.4,0,0.9
		c0.3,1.3,0.6,2.6,0.9,3.9c-0.2,0.2-0.4,0.5-0.5,0.7c-1,2.2,1,5,1.3,5.3c3-3.2,5.5-6,7.3-8.2c1.4-1.8,2.6-3.2,3.3-4.2
		c1.6-2.1,3.1-4.2,4.5-6.3c1.4-0.1,2.8-0.2,4.2-0.4c1.3-0.1,2.5-0.3,3.8-0.4c0.3,0,0.6-0.1,0.6-0.3c0-0.2-0.2-0.5-0.7-0.6
		c-0.6-1-1.2-1.9-1.8-2.9c-0.2-0.2-0.3-0.4-0.3-0.5c-0.3-1,0.5-2,0.6-2c1-1.1,2.1-2.2,3.1-3.3c0.8-1.9,2.8-2.8,4.3-2.3
		c1.5,0.5,2,2.1,2,2.3c0.1,0.2,0.3,0.3,0.5,0.3c0.1,0,0.2-0.2,0.2-0.3c-0.1-0.2-0.2-0.5-0.4-0.7c0-0.1-0.1-0.2-0.2-0.3
		c-0.1-0.1-0.2-0.2-0.3-0.3c0.1-0.4,0.2-0.8,0.4-1.3c-0.2-0.2-0.3-0.5-0.2-0.7c0.1-0.4,0.4-0.5,0.4-0.5c0-0.3,0.1-0.6,0.2-0.9
		c0,0-0.6-0.4-0.5-0.6c0-0.1,0.1-0.1,0.1-0.1c0.1,0,0.2,0.2,0.3,0.2c0.1,0,0.2-0.2,0.2-0.3c0-0.1,0-0.3-0.1-0.3c0.1,0,0.2,0,0.3,0
		c0.2-0.1,0.3-0.3,0.3-0.3c0.2-0.2,0.3-0.3,0.3-0.4c0.3-0.5,0.2-0.7,0.5-1.2c0.1-0.2,0.2-0.2,0.3-0.3
		C279.2,469.1,279.2,468.7,279,468.3z M273.9,474.4C273.9,474.4,273.8,474.5,273.9,474.4c-0.1,0.1-0.2,0.1-0.2,0c0-0.1,0-0.1,0-0.2
		c-0.1-0.1-0.1-0.1-0.1-0.2c0,0,0.1,0,0.2,0c0.1,0,0.2,0.1,0.2,0.2C274,474.3,273.9,474.4,273.9,474.4z M275.3,474
		c-0.1,0.1-0.1,0.1-0.2,0.1c0-0.2,0-0.4,0-0.7c0.1-0.2,0.3-0.3,0.3-0.3c0.1,0,0.1,0.2,0.1,0.3C275.4,473.5,275.5,473.8,275.3,474z
		 M275.7,473.4c0.1-0.2,0.1-0.3,0.2-0.5c0,0,0,0,0.1,0c0.2,0,0.3-0.5,0.3-0.5c0,0.2,0.1,0.5,0.1,0.8c0,0.2,0,0.5,0,0.7
		C276.2,473.7,276,473.5,275.7,473.4z M276.7,472c0,0-0.1-0.3-0.3-0.3c-0.2-0.1-0.3,0-0.4,0c-0.2-0.2-0.5-0.3-0.7-0.5
		c0,0-0.1-0.1-0.1-0.3c0-0.2,0.2-0.3,0.4-0.3c0.2,0.1,0.3,0.2,0.5,0.3c0.2,0.1,0.4,0.3,0.6,0.4c0,0.1,0,0.2,0,0.2
		c0,0.1,0.1,0.2,0.1,0.2C276.8,471.9,276.8,471.9,276.7,472z"/>
	<path id="XMLID_5_" d="M265.2,490.8c0.7,0,1.1-0.2,1.3-0.4c0.4-0.3,0.6-0.9,1.2-1c0,0,0.2,0,0.4,0c1.1-0.1,1.3,0,1.6-0.1
		c0.2-0.1,0.6-0.2,0.9-0.6c0.1,0,0.4-0.1,0.6,0.1c0.4,0.2,0.5,0.6,0.5,0.7c1.4,2.1,2.3,3.5,2.9,4.3c1.1,1.7,1.6,2.5,2.6,3.5
		c0.9,0.9,1.8,1.6,2.5,2c0,0,0.2,0,0.3,0.1c0.1,0.1,0.1,0.3,0.1,0.4c-0.1,0.2-0.4,0.3-0.8,0.3c-1.1-0.2-2-0.3-2.6-0.3
		c-1.4,0.1-5.3,0.5-6.1,0.5c-0.1,0-0.3,0-0.5-0.1c-0.3-0.2-0.4-0.5-0.4-0.5c-0.4-0.6-0.8-1.3-1.2-1.9c-0.1-0.4-0.2-0.7-0.2-0.9
		c0-0.2,0-0.4-0.1-0.5c-0.1-0.1-0.3-0.1-0.5-0.1c0-0.1-0.1-0.3-0.3-0.4c-0.2-0.2-0.3-0.3-0.4-0.4c0-0.1,0-0.3-0.2-0.6
		c-0.2-0.3-0.4-0.5-0.5-0.5c0-0.2-0.1-0.7-0.4-1.1c-0.3-0.4-0.6-0.7-0.8-0.8c-0.1-0.2-0.2-0.3-0.3-0.5c-0.1-0.2-0.3-0.6-0.1-0.8
		C264.9,490.8,265.2,490.8,265.2,490.8z"/>
</g>
<path id="XMLID_99_" class="st0" d="M276.8,471.8c0,0.1-0.1,0.1-0.1,0.1c0,0-0.1-0.3-0.3-0.3c-0.2-0.1-0.3,0-0.4,0
	c-0.2-0.2-0.5-0.3-0.7-0.5c0,0-0.1-0.1-0.1-0.3c0-0.2,0.2-0.3,0.4-0.3c0.2,0.1,0.3,0.2,0.5,0.3c0.2,0.1,0.4,0.3,0.6,0.4
	c0,0.1,0,0.2,0,0.2C276.8,471.7,276.8,471.7,276.8,471.8z"/>
<path id="XMLID_98_" class="st0" d="M276.5,473.9c-0.3-0.2-0.5-0.3-0.8-0.5c0.1-0.2,0.1-0.3,0.2-0.5c0,0,0,0,0.1,0
	c0.2,0,0.3-0.5,0.3-0.5c0,0.2,0.1,0.5,0.1,0.8C276.4,473.4,276.5,473.7,276.5,473.9z"/>
<path id="XMLID_97_" class="st0" d="M275.3,474c-0.1,0.1-0.1,0.1-0.2,0.1c0-0.2,0-0.4,0-0.7c0.1-0.2,0.3-0.3,0.3-0.3
	c0.1,0,0.1,0.2,0.1,0.3C275.4,473.5,275.5,473.8,275.3,474z"/>
<path id="XMLID_96_" class="st0" d="M274,474.3c0,0-0.1,0.1-0.2,0.1c0,0,0,0.1-0.1,0.1c0,0-0.1,0-0.1,0c0-0.1,0-0.1,0-0.2
	c-0.1-0.1-0.1-0.1-0.1-0.2c0,0,0.1,0,0.2,0C273.9,474.1,274,474.2,274,474.3z"/>
<path id="XMLID_68_" d="M290.1,499.8c-0.1,0-0.4,0-0.7-0.2c-0.3-0.3-0.4-0.7-0.3-1.2c0.1-1,0.2-2,0.3-3c0.1-2.1,0.1-4.1,0-5.8
	c0,0-0.1-0.3,0.1-0.5c0.1-0.3,0.4-0.3,0.4-0.3c0.2,0,1.2,0.1,2-0.6c0.4-0.4,1-1.3,0.6-1.9c-0.3-0.4-1.1-0.5-1.8-0.2
	c-0.2-0.2-0.4-0.4-0.6-0.7c-0.1-0.2-0.2-0.4-0.3-0.6c-0.1-0.4-0.2-1.1-0.2-1.9c0-0.8,0.1-1.2,0.1-1.8c0-0.7,0-1.6-0.4-2.8
	c0.9-0.3,2.3-0.8,3.3-2.2c0.4-0.5,0.7-1,0.7-1.7c-0.2-1.1-1.7-1.9-2.8-2c-0.9-0.1-1.5,0.2-1.9,0.3c0-0.1,0.3-1-0.3-1.6
	c-0.2-0.2-0.4-0.3-0.6-0.4c0,0-0.3-0.3-0.2-0.6c0.1-0.3,0.3-0.5,0.6-0.5c1.3,0.2,2.9,0.4,4.7,0.4c2,0,3.8-0.3,5.2-0.6
	c0.1,0,0.3,0,0.5,0.2c0.2,0.2,0.2,0.7-0.1,1c-0.2,0.7-0.3,1.4-0.5,2.1c-0.1,0.3-0.1,0.7-0.2,1c-0.1,4.6-0.1,9.1-0.2,13.7
	c0,1.2,0,2.5,0,3.9c-0.1,1.6-0.2,3.1-0.4,4.5c0,0.1-0.1,0.5,0.1,0.8c0.1,0.2,0.2,0.4,0.3,0.5c1,0.2,2.1,0.3,3.3,0.4
	c3,0.2,5.7,0.1,8-0.2c0.1-0.1,0.4-0.2,0.7-0.5c0.4-0.5,0.3-1.1,0.3-1.2c0.4-7.3,0.8-14.5,1.2-21.8c0-0.3-0.1-0.7-0.2-1.2
	c-0.2-0.5-0.4-0.9-0.5-1.2c-0.5-0.3-0.7-0.8-0.5-1.1c0.1-0.2,0.4-0.2,0.5-0.2c0.8,0,1.9-0.1,3.4,0c1.4,0.1,1.9,0.2,2.7,0.2
	c0.9,0,2.3-0.2,4-0.8c0,0,0.1,0,0.1,0.1c0.4,0.3,0.1,1.1,0.1,1.2c0,0.5,0,1-0.1,1.5c-0.8-0.2-2.3-0.4-3.7,0.4
	c-0.4,0.2-1.7,0.9-1.6,1.8c0,0.4,0.3,0.7,0.5,0.9c0.2-0.1,0.8-0.2,1.5,0c0.7,0.2,1.1,0.7,1.2,0.8c0.1,0.3,0.2,0.8,0.5,1.2
	c0.1,0.3,0.3,0.5,0.4,0.7c0,0.4,0,1.1-0.1,1.8c-0.2,2.1-0.5,3-0.7,4.4c-0.1,0.9-0.1,2.3,0.3,4c-0.1,2-0.3,4-0.4,6
	c-0.1,0.7,0.2,1.3,0.7,1.6c0.4,0.3,0.8,0.2,1,0.2c1.1-0.2,2.2-0.4,3.1-0.5c0.2,0,0.5-0.1,0.7,0.1c0.3,0.3,0.1,0.9-0.4,1.6
	c-0.3,0.6-0.6,1.5-1,2.6c-1.2,3.4-1.7,6.2-1.9,8c-0.2,1.5-0.4,3.4-0.4,5.6c0,0.3-0.2,0.6-0.4,0.5c-0.1,0-0.3-0.2-0.3-0.5
	c0-0.3-0.1-0.7-0.1-1.3c0-0.6,0.1-1.1,0.1-1.2c0.2-1,0-7.5-4.5-10.3c-0.6-0.4-1.6-0.9-3.1-1.1c-1-0.1-2.6-0.1-4.4-0.2
	c-2.2,0-2.7,0.1-4.5,0.1c-3.3,0-3.9-0.3-6.7-0.3C294.8,499.4,292.7,499.4,290.1,499.8z"/>
<path id="XMLID_73_" d="M325.8,470.3c1.9,0,3.5-0.1,4.7-0.3c1.3-0.1,2.2-0.3,2.6-0.4c0.9-0.2,1.6-0.3,2.3-0.5c0.1,0,0.2,0,0.4,0.2
	c0.2,0.1,0.2,0.3,0.3,0.4c-0.3,1.8-0.5,3.9-0.4,6.3c0,1.4,0.2,2.6,0.4,3.7c0.1,0,0.3,0,0.4,0.1c0,0.1,0,0.2,0,0.4
	c0,0.4,0.1,0.9,0.4,1.4c0.2,0.3,0.6,0.9,2.4,1.7c1.6,0.7,2.4,1.1,3.7,1c1.1-0.1,1.9-0.4,2.4-0.7c0.1-0.3,0.3-0.8,0.3-1.4
	c0.1-0.7-0.1-0.9-0.1-1.7c0-1.3,0.3-1.4,0.2-2.5c0-0.5-0.1-0.6-0.2-0.9c-0.1-0.2-0.1-0.4-0.1-0.6c0-0.6,0.1-2,0.1-2.6
	c0-0.4,0-1-0.2-1.7c0-0.3,0-0.6,0-0.9c-0.3-0.2-0.5-0.6-0.4-1c0.1-0.3,0.3-0.6,0.4-0.6c1.5,0,3.1,0,4.9-0.1c1.5-0.1,2.9-0.3,4.2-0.5
	c0.1,0,0.3,0,0.4,0.1c0.2,0.2,0.2,0.6-0.1,0.9c-0.8,0.2-1.5,0.2-2,0.3c-1.1,0-1.6-0.1-2.1,0.3c-0.6,0.4-0.8,1.1-0.8,1.2
	c-0.1,0.2-0.2,0.8,0.2,1.3c0.4,0.5,1,0.5,1.5,0.5c0.9,0,1.5-0.4,1.9-0.6c0.3-0.2,0.7-0.1,0.8,0.1c0.1,0.2,0,0.5,0,0.5
	c-0.2,1.8-0.2,3.7-0.3,5.7c0,1.2,0,2.4,0.1,3.5c0,0.7-0.1,1.4-0.1,2.1c-0.1,2.8-0.1,5.6-0.1,8.2c-0.1,0.5-0.1,1.2-0.1,2
	c-0.1,1.8,0.1,2.2,0.1,2.4c0.1,0.4,0.5,1.1,1.4,1.7c0.2,0.2,0.2,0.5,0.1,0.7c-0.1,0.1-0.3,0.2-0.5,0.1c-3.2,0-6.5-0.1-9.7-0.1
	c0.1-0.9,0.1-1.7,0.2-2.6c0-0.2,0.1-0.5,0.2-0.8c0.5-2.2,0.3-3.8,0.3-5.8c0-1,0-2.5,0.1-4.3c0.2-0.5-0.1-1.1-0.5-1.3
	c-0.5-0.3-1.1,0-1.1,0c-0.4,0.2-1.1,0.4-1.9,0.7c-1.2,0.3-1.8,0.3-2.9,0.6c-0.6,0.1-1.4,0.4-2.4,0.9c-0.6,0.1-4,0.7-6.6-1.6
	c-1.9-1.6-2.4-4-2.7-4.9c-0.2-0.9-0.3-1.6-0.3-2.2c0.2-0.1,0.4-0.3,0.7-0.6c0.2-0.2,0.3-0.5,0.4-0.6c0.4-0.1,1-0.3,1.6-0.6
	c0.2-0.1,0.4-0.3,0.6-0.4c0-0.4-0.1-0.8-0.1-1.2c-0.3-0.1-0.6-0.2-1-0.4c-0.5-0.3-0.9-0.6-1.2-0.8c-0.1-0.2-0.2-0.4-0.4-0.6
	c-0.2-0.3-0.4-0.5-0.6-0.6c0.3-0.4,0.3-0.8,0.2-0.9c-0.1-0.1-0.3-0.1-0.4-0.1c-0.1-0.1-0.4-0.3-0.7-0.5c-0.4-0.2-0.8-0.1-1-0.1
	c0,0-0.2-0.1-0.3-0.2c0,0-0.1-0.1-0.1-0.3C325.3,470.5,325.5,470.3,325.8,470.3z"/>
<path id="XMLID_122_" d="M398.2,489.7c-0.1-3.5-0.1-6.6,0-9.3c0.1-3.2,0.3-6.9,0.8-11.1c0.2-0.2,0.2-0.6,0-0.7
	c-0.2-0.2-0.5-0.1-0.5-0.1c-1.6,0.4-3.5,0.8-5.7,0.9c-1.9,0.1-3.5,0-5-0.1c0,0-0.3,0.1-0.3,0.4c0,0.2,0,0.3,0.1,0.3
	c0.3,0.8,0.5,1.5,0.8,2.3c0.1,0.2,0.2,0.4,0.3,0.7c0.2,0.9,0,1.7-0.2,2c0,1.4,0.1,2.7,0.1,4.1c0.1,0.6,0.1,1.1,0.1,1.7
	c0.1,2.5,0.1,5,0,7.2c0,2.1,0,4.1-0.1,6.2c0.1,0.1,0.8,1.4,0.3,2.6c-0.6,1.2-2.3,1.8-4,1.2c-0.2-0.1-0.5-0.4-0.7-0.8
	c-0.3-0.6-0.2-1.1-0.3-2c0-0.4-0.1-1-0.3-1.7c0.2-0.5,0.2-1-0.1-1.3c0,0-0.2-0.1-0.4-0.1c-0.3,0.1-0.5,0.6-0.4,1.2c-1,1-2,2.1-3,3.1
	c0,0.1-0.2,0.4-0.5,0.6c-0.5,0.3-1,0.1-1.1,0.1c-1,1.5-2.6,1.7-3.3,1.1c-0.6-0.5-0.7-1.7,0-2.8c0.1-3.2,0.1-6.5,0.2-9.7
	c-0.5-0.7-0.7-1.3-0.8-1.6c0-0.1,0-0.1,0-0.2c-0.1-0.7,0.3-1.3,0.4-1.5c0.2-0.4,0.5-1.1,0.3-2.3c0.1-3.2,0.1-6.4,0.2-9.5
	c0.1-0.3,0.2-0.6,0.2-0.9c0.4-0.3,0.4-0.8,0.1-1c-0.2-0.2-0.5-0.2-0.8,0c-1.4,0.3-3.1,0.5-5,0.6c-2.3,0.1-4.3-0.1-5.9-0.4
	c-0.1,0-0.4,0.1-0.6,0.5c-0.1,0.3-0.1,0.8,0.2,1c0.2,0.1,0.6,0.4,0.9,0.9c0.2,0.4,0.3,0.8,0.3,1c0.2,1.2,0.4,2.4,0.5,3.7
	c0.2,2,0.4,3.9,0.5,5.7c0.4,0.3,1,0.6,1.6,0.6c0.8,0.1,1.2-0.3,2-0.2c0.4,0,1,0.2,1.6,0.7c0.2,0.2,0.4,0.3,0.5,0.5
	c0.8,1.2,0,2.9-0.1,3.1c0,0.1-0.5,1.2-1.7,1.4c-1,0.2-1.8-0.3-1.9-0.4c0-0.1-0.1-0.2-0.1-0.4c0-0.2,0.1-0.3,0.1-0.4
	c0.1,0,0.2,0,0.3,0c0.2,0,0.5-0.1,0.7-0.1c0.3,0,0.6-0.2,0.6-0.4c0-0.2-0.3-0.4-0.7-0.3c-0.2,0.1-0.5,0.1-0.9,0.1
	c-0.3,0-0.6,0-0.8-0.1c-0.3,0.1-0.4,0.4-0.3,0.6c0.1,0.1,0.2,0.2,0.4,0.2c0.1,0,0.2,0.1,0.2,0.3c0.1,0.3-0.3,0.6-0.4,0.7
	c-0.2,0.2-0.4,0.3-0.6,0.3c-0.4,3.9-0.8,7.8-1.3,11.7c0,0-0.1,0.2-0.1,0.4c0.1,0.2,0.3,0.4,0.6,0.4c1-0.1,10.8-0.1,12.3-0.1
	c0.5,0.9,1.2,2.8,1.2,5.1c0,2.1-0.6,3.8-1,4.7c-0.1,0.3,0,0.6,0.2,0.7c0.2,0.1,0.6-0.1,0.6-0.4c0.7-0.9,1.4-1.7,2.1-2.6
	c0-0.1-0.1-0.4,0.1-0.7c0.2-0.2,0.4-0.4,0.4-0.4c0.5-0.7,1.2-1.7,1.7-3c0.4-1.2,0.6-2.2,0.7-3c0-0.1,0.1-0.4,0.4-0.7
	c0.3-0.3,0.7-0.3,0.8-0.3c1,0.1,2,0.1,3.1,0.2c2.1,0.3,4.5,0.5,7.1,0.5c1.2,0,2.3,0,3.4-0.1c0.2,0,0.4-0.1,0.5-0.2
	c0.2-0.2,0.1-0.5-0.1-0.8C398.5,496.3,398.3,493.1,398.2,489.7z M393.4,496.8c0,0,0,0.5-0.3,0.8c-0.4,0.3-1.1,0-1.2-0.4
	c-0.1-0.3,0-0.6,0.2-0.8c0.3-0.3,0.7-0.4,1.1-0.2c0.2-0.1,0.4,0,0.5,0.2C393.7,496.5,393.6,496.7,393.4,496.8z M394.8,490
	c0.1,0.1,0.1,0.1,0.1,0.2c0,0.1-0.1,0.2-0.3,0.2c-0.3,0.3-0.5,0.7-0.4,1.1c0.1,0.4,0.3,0.5,0.3,0.7c-0.1,0.3-1.2,0.4-1.6-0.2
	c-0.4-0.5-0.1-1.2-0.1-1.2c-0.2-0.1-0.4-0.3-0.6-0.4c-0.3,0.1-0.8,0.2-1.1,0c-0.1-0.1-0.2-0.2-0.4-1.2c-0.1-0.4-0.1-0.7-0.2-0.9
	c-0.3-0.2-0.4-0.6-0.3-0.9c0.1-0.4,0.4-0.6,0.8-0.6c0.4,0,1.2,0,2,0.3c0.6,0.2,1.1,0.6,1.4,0.8c0.5-0.1,0.9,0,1.1,0.3
	C395.8,488.6,395.6,489.5,394.8,490z"/>
<path id="XMLID_116_" class="st0" d="M393.7,496.3c0,0.2,0,0.4-0.2,0.4c0,0,0,0.5-0.3,0.8c-0.4,0.3-1.1,0-1.2-0.4
	c-0.1-0.3,0-0.6,0.2-0.8c0.3-0.3,0.7-0.4,1.1-0.2C393.4,496,393.6,496.1,393.7,496.3z"/>
<path id="XMLID_117_" class="st0" d="M394.8,490c0.1,0.1,0.1,0.1,0.1,0.2c0,0.1-0.1,0.2-0.3,0.2c-0.3,0.3-0.5,0.7-0.4,1.1
	c0.1,0.4,0.3,0.5,0.3,0.7c-0.1,0.3-1.2,0.4-1.6-0.2c-0.4-0.5-0.1-1.2-0.1-1.2c-0.2-0.1-0.4-0.3-0.6-0.4c-0.3,0.1-0.8,0.2-1.1,0
	c-0.1-0.1-0.2-0.2-0.4-1.2c-0.1-0.4-0.1-0.7-0.2-0.9c-0.3-0.2-0.4-0.6-0.3-0.9c0.1-0.4,0.4-0.6,0.8-0.6c0.4,0,1.2,0,2,0.3
	c0.6,0.2,1.1,0.6,1.4,0.8c0.5-0.1,0.9,0,1.1,0.3C395.8,488.6,395.6,489.5,394.8,490z"/>
<path id="XMLID_108_" class="st0" d="M393.4,496.8c0,0,0,0.5-0.3,0.8c-0.4,0.3-1.1,0-1.2-0.4c-0.1-0.3,0-0.6,0.2-0.8
	c0.3-0.3,0.7-0.4,1.1-0.2c0.2-0.1,0.4,0,0.5,0.2C393.7,496.5,393.6,496.7,393.4,496.8z"/>
<path id="XMLID_107_" class="st0" d="M394.8,490c0.1,0.1,0.1,0.1,0.1,0.2c0,0.1-0.1,0.2-0.3,0.2c-0.3,0.3-0.5,0.7-0.4,1.1
	c0.1,0.4,0.3,0.5,0.3,0.7c-0.1,0.3-1.2,0.4-1.6-0.2c-0.4-0.5-0.1-1.2-0.1-1.2c-0.2-0.1-0.4-0.3-0.6-0.4c-0.3,0.1-0.8,0.2-1.1,0
	c-0.1-0.1-0.2-0.2-0.4-1.2c-0.1-0.4-0.1-0.7-0.2-0.9c-0.3-0.2-0.4-0.6-0.3-0.9c0.1-0.4,0.4-0.6,0.8-0.6c0.4,0,1.2,0,2,0.3
	c0.6,0.2,1.1,0.6,1.4,0.8c0.5-0.1,0.9,0,1.1,0.3C395.8,488.6,395.6,489.5,394.8,490z"/>
<path id="XMLID_79_" d="M409.7,473.7c0.4-0.2,1.2-0.4,2.2-0.2c0.4,0.1,0.7,0.2,1,0.3c0.2,0.1,0.4,0.2,0.5,0.5
	c0.1,0.2,0.1,0.4,0.1,0.6c0,0.3,0.1,0.7,0.4,1.1c-0.2,0.2-0.5,0.4-0.9,0.6c-1.2,0.6-2.4,0.5-2.9,0.4c-0.1,0.2-0.2,0.4-0.3,0.6
	c0.1,0.2,0.4,0.7,0.4,1.4c0,0.5-0.1,1-0.2,1.2c0.1,1.9,0.2,3.9,0.1,6.1c0,4.8-0.5,9.2-1.1,13.1c0.3,0.2,0.5,0.4,0.8,0.6
	c3.1,0.1,5.6,0,7.3,0c2.3-0.1,4.3-0.2,7.2-0.1c1.4,0.1,2.5,0.2,3.3,0.3c4.2-0.1,8.5-0.2,12.9-0.3c0.6,0,1.1,0,1.7-0.1
	c0.4-0.1,0.9-0.2,1.5-0.2c0.8,0,1.4,0.1,1.9,0.2c0.1,0,0.2,0.1,0.3,0.2c0.1,0.2,0.2,0.3,0.2,0.4c0.2,0,0.3,0.1,0.6,0.1
	c0.2,0,0.4,0,0.6-0.1c0.1-0.1,0.4-0.3,0.9-0.3c0.2,0,0.3,0.1,0.4,0.1c0.5,0.3,1,0.2,1.2-0.1c0.1-0.2,0-0.6,0-0.6
	c-0.1-0.3-0.2-0.5-0.3-0.8c-0.2-0.5-0.3-0.9-0.4-1.3c0.1-0.9,0.1-2.4-0.5-4.2c-0.5-1.6-1.3-2.7-1.9-3.3c-0.9,0.2-1.7-0.2-2-0.8
	c-0.2-0.7,0.4-1.4,0.9-1.7c0.4-0.3,0.8-0.3,1-0.3c0.7-0.4,1.3-0.9,2-1.3c0.3-0.4,0.5-0.8,0.8-1.3c0-0.7,0.1-1.4,0.1-2.1
	c-0.1-1.9-0.1-4,0.1-6.3c0.2-2.5,0.5-4.7,0.8-6.7c0.2-0.1,0.2-0.4,0.1-0.6c-0.1-0.2-0.4-0.2-0.6,0c-1.4,0.3-2.8,0.5-4.4,0.6
	c-1.9,0.2-3.6,0.3-5.3,0.3c-0.1,0.1-0.3,0.2-0.4,0.6c-0.2,0.6,0.2,1.1,0.3,1.2c0.2,1.2,0.3,2.4,0.4,3.6c0.3,3.9,0.1,7.4-0.3,10.4
	c0,3.4,0,6.7,0,10.1c0,0.1,0.2,0.8-0.4,1.4c-0.5,0.5-1.1,0.4-1.2,0.4c-1.4,0.3-3,0.5-4.8,0.6c-1.2,0.1-2.4,0-3.4-0.1
	c-0.3-0.2-0.5-0.4-0.5-0.5c-0.2-0.5,0-1.2,0.6-1.8c0.3-1.7,0.8-3.7,1.6-5.7c0.3-0.7,0.6-1.4,0.9-2.1c0.1-0.5,0.1-1,0.2-1.6
	c0.1-1.3,0-2.4,0-3.4c-0.9-2.1-1.9-5-1.9-8.5c0-0.8,0.1-1.5,0.1-2.2c-0.2-0.5-0.4-0.8-0.6-0.8c-0.1,0-0.2,0.4-0.2,0.8
	c-0.2,0.5-0.4,1.1-0.7,1.8c-0.5,1.2-1.2,2.2-1.8,2.9c0,0.1-0.1,1.1-0.9,1.5c-0.1,0-0.2,0.1-0.4,0.1c-0.1,0.2-0.1,0.3-0.2,0.5
	c-0.2,0.4-0.3,0.7-0.4,1.1c-0.4,0.1-0.6,0.4-0.7,0.8c-0.1,0.4,0.1,0.8,0.5,1.1c0.1,1.6,0.3,3.7,1.1,5.9c0.3,0.8,0.6,1.5,0.9,2.1
	c0.4,0.4,0.8,0.9,1.3,1.3c0.5,1.2,0.5,2.1,0.3,2.7c-0.1,0.6-0.3,0.7-0.4,1.5c-0.2,0.9-0.1,1.3-0.4,1.7c-0.3,0.4-0.7,0.5-0.9,0.6
	c-1.3,0.2-2.7,0.4-4.3,0.5c-1.4,0.1-2.7,0.1-3.9,0c-0.4,0.1-0.7-0.1-0.9-0.4c-0.3-0.4-0.2-0.8-0.2-0.9c0.1-2.9,0.2-5.9,0.2-8.8
	c-0.1-0.2-0.4-0.7-0.5-1.3c-0.1-0.8,0.3-1.4,0.4-1.6c0.1-1.1,0.1-2.2,0.2-3.2c-0.2-2.4-0.3-5.2,0.1-8.3c0.1-1.2,0.3-2.4,0.5-3.4
	c0-0.2,0-0.4,0-0.7c0.2-0.4,0.2-0.8,0-1c-0.1-0.1-0.3-0.1-0.4,0c-0.4,0-1,0.1-1.7,0.2c-1.7,0.3-2.5,0.5-3.5,0.7
	c-0.9,0.1-2.1,0.2-3.8-0.2c-0.4-0.2-0.9,0-1,0.4c-0.2,0.4,0.1,0.9,0.5,1C409.3,471.9,409.5,472.8,409.7,473.7z"/>
</svg>
