<?xml version="1.0" encoding="utf-8"?>
<!-- Generator: Adobe Illustrator 19.2.0, SVG Export Plug-In . SVG Version: 6.00 Build 0)  -->
<svg version="1.1" id="Layer_1" xmlns="http://www.w3.org/2000/svg" xmlns:xlink="http://www.w3.org/1999/xlink" x="0px" y="0px"
	 viewBox="0 0 1000 1000" style="enable-background:new 0 0 1000 1000;" xml:space="preserve">
<path id="XMLID_73_" d="M12.6,33.3c49.2,0.1,90-3.1,120.6-6.6c32.5-3.7,57.2-8.1,66.2-9.8c22.4-4.2,42-8.7,58.2-12.8
	c2,0.3,6,1.3,9.9,4.2c4.3,3.2,6.4,7.1,7.2,9c-7.6,44.9-12.9,99.1-10.8,160.5c1.2,34.6,4.6,66.5,9,95.2c3.2,0.6,6.4,1.2,9.6,1.8
	c0.1,3.1,0.2,6.2,0.3,9.3c0.4,9.3,2.4,23.2,10.3,37.1c3.9,6.9,14.1,22.1,60.8,43.2c40.2,18.2,62.4,28.2,94.4,26.7
	c28-1.3,49.8-10.8,62.4-17.6c2.9-8,6.6-20.3,8-35.7c1.7-18.7-1.7-22.8-2.1-44.3c-0.7-32.7,6.9-35.7,4.8-65.1
	c-1-14.1-3-16.6-4.6-23.7c-1.4-6-1.6-10.7-1.8-14.2c-0.8-15.8,1.9-50.1,2.1-66.7c0.1-10.1-0.5-24.9-4.4-43.2c0.1-8,0.1-16,0.2-24
	c-8.1-6.1-12.3-15.8-10.7-25.1c1.5-8.9,7.8-14.1,9.6-15.5c37.6,1.3,79.3,0.8,124.3-2.7c38.7-3,74.6-7.7,107.2-13.3
	c1.6,0,6.8,0.1,10.1,3.7c4.5,4.9,4,14.5-2.7,21.9c-21.6,4.5-39.5,6-52.3,6.4c-27.9,1-39.7-2.5-53.3,6.4
	c-15.7,10.3-20.1,28.1-20.8,31.5c-1.3,5.9-4.8,21.7,4.3,33.6c9.5,12.4,26.5,12.6,37.3,12.8c21.9,0.3,38.7-9,47.5-14.9
	c8.1-4.4,17.2-2.1,20.8,3.7c3.5,5.7,0.3,12.7,0,13.3c-3.9,45.1-6.3,93.6-6.4,145.1c-0.1,31.2,0.7,61.3,2.2,90.2
	c-0.9,17.6-1.6,35.4-2.2,53.3c-2.5,72.2-2.9,142.5-1.6,210.7c-1.3,12.2-2.9,29.8-3.7,51.2c-1.9,45.8,1.7,57,3.7,62.4
	c3.6,9.6,12.5,27.1,36.3,43.2c5.3,4.8,5.9,12.4,2.1,17.1c-2.8,3.5-7.9,5-12.8,3.7c-82.7-1.2-165.4-2.5-248-3.7
	c1.4-22.2,2.8-44.4,4.2-66.6c1.3-5,3-12.4,4.9-21.4c11.7-57.5,8.1-98,7.5-147.8c-0.4-26.4,0-63.5,3.2-108.8
	c4-13.5-1.3-27.7-12.3-34.1c-13.2-7.8-27.5-0.4-28.3,0c-10.7,4.8-27.2,11.5-48,17.1c-30.9,8.3-45.9,7.4-74.1,14.4
	c-14.8,3.7-35.8,10.2-60.3,22.4c-14.1,2.5-102.3,16.8-168.6-40c-48-41.2-62.5-101.1-68.2-124.7c-5.4-22.2-7-41.5-7.5-55.5
	c4.8-3.4,11.2-8.7,17.1-16.5C78,224,81,218.2,83,213.6c11.4-2.4,26.2-6.9,41.6-16c5.9-3.5,11-7.1,15.5-10.7
	c-0.7-10.1-1.4-20.3-2.1-30.4c-7.2-2.1-15.6-5.1-24.5-9.6c-13.6-6.8-24-14.7-31.5-21.3c-2-4.4-4.9-9.8-9.1-15.5
	c-5-6.7-10.2-11.5-14.4-14.9c8-9.4,8.5-19.6,4.3-23.5c-3-2.8-8.2-1.9-9.6-1.6c-3.3-3.3-9.4-8.7-18.7-12.3
	c-11.1-4.3-20.9-3.7-25.7-3.1c-1-0.3-4.1-1.3-6.4-4.4c-0.5-0.6-2.6-3.7-2.3-7C0.4,38.6,5.5,34.1,12.6,33.3z"/>
</svg>
