<?xml version="1.0" encoding="utf-8"?>
<!-- Generator: Adobe Illustrator 19.2.0, SVG Export Plug-In . SVG Version: 6.00 Build 0)  -->
<svg version="1.1" id="Layer_1" xmlns="http://www.w3.org/2000/svg" xmlns:xlink="http://www.w3.org/1999/xlink" x="0px" y="0px"
	 viewBox="0 0 1000 1000" style="enable-background:new 0 0 1000 1000;" xml:space="preserve">
<path id="XMLID_66_" d="M211.8,767.6c6.8-18.1,14.5-45,15.9-78c1.2-27.9-2.3-51.4-6.4-68.5c25,4.7,36.3-1.9,41.5-6.4
	c9.3-8.2,6.5-16.7,17.5-47.8c8.4-23.9,13-27.1,11.1-35c-1.4-6-7.8-21.3-52.6-30.2c11.4-37.4,22.5-86.5,25.5-144.9
	c3.9-78.4-8.4-143.3-20.7-188c7.9-3.7,15.9-7.5,23.9-11.1c-1.1,29.8,17.3,54.9,41.5,60.5c15.9,3.7,34.7-0.8,46.2-12.7
	c10.6-11,10.2-23.1,14.4-55.7c2-15.2,5.3-37.7,11.1-65.3c-4.8-20.9-22-36.8-43-39.8c-20.1-2.8-40.1,6.5-50.9,23.9
	c-9,0.2-22-1.1-31.9-9.6c-11.3-9.8-8.4-20.3-17.5-30.2c-13.8-15.1-44.4-16.8-66.9-4.8c-31.6,17-33.4,54.2-33.4,55.7
	c-22.3,52.6-44.6,105.1-66.9,157.7c0.4-34.1-3-83-20.7-138.6C35.4,54.1,16.3,18.8,0.1-6.5C84.5-4.9,169-3.4,253.4-1.7
	c2.3-15.4,3.9-33.6,3.2-54.2c-1.2-35.4-8.6-64.7-15.9-86.1c74.9,0.6,149.7,1.1,224.6,1.6c-4.1,18-7.7,38.8-9.6,62.1
	c-2.2,27-1.6,51.1,0,71.7C587.8-1.3,720,4.1,852.2,9.3c-22.2,30.2-46,66.9-68.5,109.9C764,157,749,192.5,737.4,224.3
	c1.6-20,6.9-111.8-55.7-167.2c-8.6-7.6-19.6-15.5-33.4-22.3c-64.8-2.7-129.5-5.3-194.3-7.9c-2.1,99.8-4.2,199.7-6.4,299.4
	c1.6,2.7,6.1,8.9,14.4,12.7c6.7,3.2,12.8,3.3,15.9,3.2c66.9-13.8,133.8-27.6,200.7-41.5c65.9-32,142.4-25.2,196,17.5
	c58.6,46.8,64.5,116.7,65.3,129c-1.1,71.7-2.1,143.4-3.2,215c-30,12.4-54.7,20.4-71.7,25.5c-31.3,9.3-50.2,12.7-62.1,30.2
	c-0.8,1.2-13.2,20.1-6.4,30.2c2.7,4.1,11.1,10.7,71.7-3.2c19.7-4.6,47.8-11.9,81.3-23.9c4.3,12.4,10.9,27.2,20.7,43
	c6.9,11,14,20.3,20.7,27.9c-86.1,0-172,0-258.1,0c3.2-31.6,6.4-63.2,9.6-94.8c4.3-7.7,15.2-29.4,11.1-57.3
	c-2.2-15.1-7.9-26.4-12.3-33.4c0.4-31.3,0.7-62.7,1.1-94c-9.3-84.2-64.2-149.1-132.2-162.4c-42.4-8.3-91.1,3.3-124.3,33.4
	c-48.8,44.5-47.9,114.8-44.6,237.3c1.9,68.2,9.7,123.4,15.9,159.3C375.4,776,293.6,771.8,211.8,767.6z"/>
</svg>
