<?xml version="1.0" encoding="utf-8"?>
<!-- Generator: Adobe Illustrator 19.2.0, SVG Export Plug-In . SVG Version: 6.00 Build 0)  -->
<svg version="1.1" id="Layer_1" xmlns="http://www.w3.org/2000/svg" xmlns:xlink="http://www.w3.org/1999/xlink" x="0px" y="0px"
	 viewBox="0 0 1000 1000" style="enable-background:new 0 0 1000 1000;" xml:space="preserve">
<path id="XMLID_30_" d="M738.6,646.1c-7.5-10.1-18.6-25.7-30.9-45.8c-60.6-98.8-74.5-186.6-98.8-334.5
	c-7.5-46.7-21.7-131.6-44.1-265.9c-30,5-61.3,9-94.4,12.3c-74.8,7.1-143.4,7.5-205,4.5c-0.5,2.8-0.7,7.3,1.4,11.8
	c5.9,11.8,22.2,9.9,37,17.5c24.5,13,30.2,46,30.9,50.2c5.2,33.3-14.4,58-17.7,62c-83,168.1-166,336-249.1,504.2
	c-5.2,4.2-12,9.2-20.8,13.2c-19.6,9-37.7,8.5-47.2,7.3c16.3,40.8,32.8,89.6,45.8,146c12.7,55.9,19.1,106.9,22.2,150.5
	C88,918.1,116.1,850,156.2,779c13.2-23.1,26.4-44.6,39.9-64.9c132.3-3.1,264.4-5.9,396.6-9c23.1-2.4,58-2.4,79.7,19.3
	c23.8,23.6,18.4,59.4,19.1,114.9c0.5,37.5,3.8,92.5,17.7,160.7c18.2-54.5,40.8-113.9,69.4-176.9c30.2-66.3,62-125.3,92.9-176.9
	L738.6,646.1L738.6,646.1z M541.2,532.7c-20.8,8.7-41.3,17.7-62,26.7c9.9,35.9,19.8,71.7,29.5,107.6c-124.3-1.4-248.6-3.1-373-4.5
	L325.8,207c1.2-25.2,14.4-42.9,28.1-44.4c11.6-0.9,21.7,9.9,25,13.2c11.3,12,13,26.2,13.2,31.1c18.4,85.4,36.6,171,54.7,256.4
	c11.8,3.8,27.4,7.3,45.8,5.9c35.1-2.4,51.4-20.3,78.1-14.6c13.4,2.8,24.1,10.6,32.3,19.1c24.1,9.7,35.9,18.4,35.4,26.7
	C637.7,513.1,605.1,523.9,541.2,532.7z"/>
</svg>
