<?xml version="1.0" encoding="utf-8"?>
<!-- Generator: Adobe Illustrator 19.2.0, SVG Export Plug-In . SVG Version: 6.00 Build 0)  -->
<svg version="1.1" id="Layer_1" xmlns="http://www.w3.org/2000/svg" xmlns:xlink="http://www.w3.org/1999/xlink" x="0px" y="0px"
	 viewBox="0 0 1000 1000" style="enable-background:new 0 0 1000 1000;" xml:space="preserve">
<path id="XMLID_36_" d="M1037.8,610.6c-6.1-38.5-24.9-68.9-55.4-103.8C907.9,420.7,814,365,738.4,330.1
	c-10.2,23-39.9,79.7-105.5,119.6c-49.3,29.6-96.1,36.3-121.3,37.9c3-138.5,5.8-276.9,8.9-415.4L553.2,36
	c30.7-3.9,102.5-8.9,178.3,29.4C855.9,128,889.4,254.5,894.3,274.7C919.5,183.4,945,92.3,970.5,0.9C821,0.3,671.7,0,522.2-0.5
	c-2.5-34.6-2.2-78.6,6.9-127.9c4.7-24.9,10.8-47.6,17.4-67.6h-265c8.9,11.9,19.9,29.1,27.7,52.1c5,14.1,7.5,27.1,8.6,37.9
	c1.9,35.2,3.6,70.3,5.3,105.5C216.5,0,109.6,0.3,3,0.9l36.3,356.9C87.2,204.7,148.1,96.4,195.2,63.7c39.6-27.7,74.2-26,74.5-26
	c21.9,1.1,38.8,9.7,48.2,15.5c1.9,42.1,3.6,84.2,5.3,126.3c41.5-16.9,78.9-9.4,90,10.5c10,17.4-2.2,41-5,46.8
	c-22.2,42.9-78.4,47.9-85,48.5c-3.3,133.2-6.9,266.4-10.2,399.8l-33,46.5c60.9-21.6,108.8-15,119.3,6.9c1.7,3.3,7.5,17.2-10.2,45.1
	c-18,0.3-45.4,2.5-76.1,13.8c-31,11.1-53.4,26.6-67.6,37.9h302.9l-29.4-64L511.7,529c18.6-4.2,103.6-21.3,188.8,29.4
	c63.4,37.9,108.8,102.2,119.3,168.1c16.6,102.7-49.8,219.6-171.1,283.3c103.8-46,297.1-145.4,359.7-264.4
	C1021.7,720.3,1047.7,670.7,1037.8,610.6z M799.1,517c-18,13.3-45.4,11.9-67.6-3.3c-4.2-3.3-16.6-13.3-17.2-27.7
	c-1.1-22.2,25.8-41.3,50.1-41.5c23.3-0.3,45.7,17.2,53.7,43.2C816.5,493.5,812.1,507.6,799.1,517z"/>
</svg>
