<?xml version="1.0" encoding="utf-8"?>
<!-- Generator: Adobe Illustrator 19.2.0, SVG Export Plug-In . SVG Version: 6.00 Build 0)  -->
<svg version="1.1" id="Layer_1" xmlns="http://www.w3.org/2000/svg" xmlns:xlink="http://www.w3.org/1999/xlink" x="0px" y="0px"
	 viewBox="0 0 1000 1000" style="enable-background:new 0 0 1000 1000;" xml:space="preserve">
<style type="text/css">
	.st0{stroke:#000000;stroke-miterlimit:10;}
</style>
<rect id="XMLID_14_" x="-53.4" width="53.4" height="800"/>
<path class="st0" d="M114.7,742.7c0,35.7-33.4,56.4-57.3,57.3c-6.1,0.2-11.5-0.9-15.8-2.2c0.5-1.4,6.8-19.7-3.2-31.1
	c-1.8-2.1-4.9-5.6-9.7-6.3c-7.1-1.1-11.3,5.1-18.3,3.7c-3.6-0.7-6.2-3-7.7-4.9c-1.4-4-2.8-9.7-2.6-16.5
	c0.7-24.2,21.8-57.3,57.3-57.3C89,685.3,114.7,711,114.7,742.7z"/>
</svg>
