<?xml version="1.0" encoding="utf-8"?>
<!-- Generator: Adobe Illustrator 19.2.0, SVG Export Plug-In . SVG Version: 6.00 Build 0)  -->
<svg version="1.1" id="Layer_1" xmlns="http://www.w3.org/2000/svg" xmlns:xlink="http://www.w3.org/1999/xlink" x="0px" y="0px"
	 viewBox="0 0 1000 1000" style="enable-background:new 0 0 1000 1000;" xml:space="preserve">
<path id="XMLID_122_" d="M878.5,530.4c-3.3-87.8-2.8-166.1-0.5-232c2.3-79.3,8-172.8,19.8-277.9c4.8-6,4.3-14,0-17.8
	c-4.8-4.3-11.5-2-11.8-2c-39.1,10-87.3,19.1-142.5,22.3c-46.9,2.8-89,1-124.9-2.5c-0.5,0-6.8,2.8-8.3,9.3c-1,4.3,0.8,7.5,1.3,8.5
	c6.8,18.8,13.5,37.6,20.3,56.4c2.8,5,5.3,11,7,18.1c5.8,22.8-1,42.4-4.5,50.9c0.8,34.4,1.8,68.5,2.5,102.8c1.3,14,2.3,28.6,3.3,43.4
	c3.5,64,2.8,124.4-1.3,180.9c-0.5,51.7-1,103.3-1.5,155c2,3.3,20.3,35.1,6.3,64.5c-14.3,30.1-57.4,46.4-99.3,29.6
	c-5.3-3.5-12.5-9.5-17.6-18.8c-8.3-14.8-5-27.8-6.8-50.2c-1-10.3-3-24.8-8.8-42.4c5.8-13.3,4.5-26.3-2.8-32.1
	c-0.8-0.5-5-3.8-9.8-2.8c-7,2-12,14-10.3,30.4c-25.1,26.1-50.2,52.2-75.3,78.3c-1,3-4.5,9.8-12,14.5c-12.5,7.8-25.8,3.5-27.8,2.8
	c-23.8,37.4-66.2,42.6-83.5,27.3c-14-12.3-16.3-43.1,0.5-70.5c1.8-81.3,3.5-162.5,5.5-243.8c-13-17.1-17.3-31.4-18.8-39.9
	c-0.3-1.5-0.8-3.3-0.8-5.5c-1.8-18.3,7.3-32.6,10-37.6c6-10.5,11.5-28.1,8.8-57.9c1.8-79.8,3.5-159.5,5.3-239
	c2-7.8,3.8-15.3,5.5-22.8c9.3-7.3,9.5-19.8,3.3-25.8c-4.8-4.5-13.3-5.3-20.3-0.8c-35.4,7-77.3,12.5-124.7,14
	C106.7,18.9,56.5,13.9,15.9,6.9c-1.5,0.5-10,3.3-14,11.8C-1.9,27,0.1,37.5,7.4,44.5C12.6,48,21.9,55,29.2,67.3c6,10,8,19.3,8.8,25.1
	c4.5,29.6,8.8,60.2,12.5,91.8C56,233.9,60,281.5,62,326.7c10.5,7,24.1,13.8,40.9,15.1c20.3,1.5,30.1-6.5,50.2-4.8
	c11,1,25.1,5,40.9,16.6c5.3,4,9,8.5,11.5,12.5c20.3,30.4,0.2,71.7-2.3,76.8c-1.3,2.8-13.5,28.8-43.1,35.1c-25.1,5.5-44.4-7-47.9-9.3
	c-0.5-1.8-1.8-5.5-1.5-10.3c0.5-4.5,2.3-8,3.3-9.8c2.3-0.3,4.5-0.8,7-1c5.8-1,11.3-1.5,16.3-1.8c8.5-0.5,14.3-5.5,14.3-9.3
	c-0.3-4-6.8-9.5-16.6-8.8c-5.8,1.8-13.5,3.3-22.8,3.3c-8.3,0-15.6-1-21.1-2.3c-6.8,2.5-9.3,9.5-7,14c1.5,3,5.3,4.8,9.5,4.8
	c2,1,4.8,3,5.8,6.3c2.3,7.5-7.5,15.8-9.8,17.6c-5.3,4.3-10.8,6.3-15.3,7C63.6,576.5,53,674.6,42.2,772.9c-0.5,0.8-3.3,5.5-1.5,10.8
	c1.8,5.8,8.5,9.8,16.1,9c24.8-2.5,271.9-1.8,308.8-2.8c11.5,23.6,30.4,69.2,30.6,129.2c0.3,53.2-14.3,94.6-24.3,117.9
	c-3.5,7.3-0.2,15.3,5,17.3c5.5,2.3,14-1.5,16.1-10.3c17.6-21.6,34.9-43.1,52.4-65c-0.5-2.3-1.3-10.3,3.5-18.1c3.8-6,8.8-9,11-10
	c12.8-16.8,29.3-41.9,41.9-75.3c10.8-29.6,15-55.9,16.6-75.5c0.5-2.8,2.5-10.3,9.5-16.6c7.5-6.8,16.3-7.5,18.8-7.8
	c25.8,1.5,51.4,3,77.3,4.8c53.4,7.5,113.1,12.8,177.6,13.5c29.3,0.3,57.7-0.5,84.5-1.8c5,0.3,10-1.8,12.8-5.5
	c3.8-5.5,2.5-13.8-3.5-18.8C887.8,696.4,881.8,616.6,878.5,530.4z M759.9,707.5c0,0.8,1,13.5-8,19.8c-10,7.3-27.1,1.3-31.1-10.3
	c-2.8-7.3,0-15.6,4.5-20.6c6.5-7,17.6-9.3,27.8-5.3c5-2.3,11,0.5,12.5,5.3C766.9,700.7,764.4,705.7,759.9,707.5z M795.3,537.6
	c2,1.5,3,3.5,2.8,5.8c-0.5,3-3.3,5.3-6.8,5.3c-7,8-13,18.3-11,28.6c1.5,9,8,12.3,6.3,16.3c-3,7-29.3,9.5-40.6-5.3
	c-9.8-12.5-2.8-29.8-2.3-30.9c-5-3.5-10-7.3-15-11c-6.3,2.5-19.6,6-28.3-0.5c-2.3-1.8-5.5-5-11-30.4c-2-9.3-3.3-17.3-4-22.8
	c-7.3-5-10.5-14-8.5-22.6c2.5-8.8,10.5-15.3,20.1-15.6c11-0.3,28.8,0.8,49.2,8.3c16.1,6,28.1,14,35.9,20.3c11.3-1.8,22.6,1,28.3,8.5
	C818.6,502.8,814.8,525.3,795.3,537.6z"/>
</svg>
