<?xml version="1.0" encoding="utf-8"?>
<!-- Generator: Adobe Illustrator 19.2.0, SVG Export Plug-In . SVG Version: 6.00 Build 0)  -->
<svg version="1.1" id="Layer_1" xmlns="http://www.w3.org/2000/svg" xmlns:xlink="http://www.w3.org/1999/xlink" x="0px" y="0px"
	 viewBox="0 0 1000 1000" style="enable-background:new 0 0 1000 1000;" xml:space="preserve">
<path id="XMLID_15_" d="M307.4,969.2c56-47.8,115-95.1,177.1-141.4c7.6-5.7,15.3-11.3,22.9-16.9c24-4.9,50.6-12.1,78.7-22.9
	c10.4-4,20.3-8.2,29.7-12.5c4.1-2.8,5.7-8.1,3.9-12.5c-1.6-3.9-5.7-6.5-10.2-6.3c-37,15.1-68.2,19.3-89.1,20.3
	c-65,3.3-120.3-18-120.3-18c-37.6-14.4-57.9-31.9-86.7-24.2c-14.3,3.8-24.7,12.2-31.3,18.8c-35.9,38-79.9,41.3-95.3,25
	c-11.5-12.1-9.2-37.5,1.6-61c6.1-52.4-5.8-84.6-18.8-104.7c-14.7-22.9-31.1-32.9-41.4-60.2c-5.1-13.4-9.1-34.9,0.4-66.9
	c12-4.8,31.1-11.7,55.1-17.5c69.6-16.6,100.1-3.9,200.8-5.5c95.7-1.5,134.8-13.9,153.9-21.1c24.6-9.2,45.5-20.2,62.8-31
	c-2.7-3.3-7.8-8.3-15.1-9.6c-3-0.6-6.5-0.5-20.3,3.9c-5.1,1.6-11.8,3.9-19.6,7c-126.8,3-253.7,6.1-380.5,9.1
	c1.5,3.9,6.2,17.3,0,27.1c-8.2,12.9-33.9,16.9-58.6,1.3c-6.9-36.6-14.6-105.8,12.5-183.6c12.1-34.9,25.1-72,60.7-101.1
	c59.2-48.3,156.7-54.5,225-6.3c45,31.7,62.4,77.5,68.8,97.9c-2.8-44.5-5.6-88.9-8.3-133.4c-7.3-11.6-9.7-21.9-10.4-29.2
	c-3.3-32.5,19.2-66.3,56.3-87.5c-22.9-4-49.5-6.7-79.2-6.3c-70.2,1-127,19.3-164.6,35.4c8.6,35.8,4.6,65.2-10.4,72.9
	c-2.6,1.3-5.9,2.3-10.4,2.1c-17.4-3.5-34.7-6.9-52.1-10.4c-23.4,25-53.8,61.1-83.4,108.4c-34,54.4-130,207.7-108.4,379.2
	C34,832.7,284.3,958.1,307.4,969.2z"/>
</svg>
