<?xml version="1.0" encoding="utf-8"?>
<!-- Generator: Adobe Illustrator 19.2.0, SVG Export Plug-In . SVG Version: 6.00 Build 0)  -->
<svg version="1.1" id="Layer_1" xmlns="http://www.w3.org/2000/svg" xmlns:xlink="http://www.w3.org/1999/xlink" x="0px" y="0px"
	 viewBox="0 0 1000 1000" style="enable-background:new 0 0 1000 1000;" xml:space="preserve">
<path id="XMLID_94_" d="M794,235.3c-17.3-36.4-30.6-64.5-61.7-84.3c-67.1-43-191.6-33.2-226.4-30.4c-18.9,1.4-50.2,4.7-67.1-14.3
	c-12.8-14.2-12.3-35.4-10.2-50.2c-3.7-36.9-6.8-90.9-2.6-155.6c5.8-87.6,22.4-150.9,6.8-157c-8.9-3.5-18.5,16.8-64.9,57.7
	c-21,18.7-37.8,30.8-64.2,50.5c-22,16.1-48.8,35-80.1,54.7c-7.2,5.8-8.2,14.5-5.1,17.5c2.8,3,11.2,2.8,17.5-3.7
	c11.4-7.5,35.3-21,67.5-21.5c15-0.5,40.2-0.9,58.4,15.4c12.8,11.4,16.6,29.2,23.4,64.2c7,35.7,14.5,73.6,17.5,89.7
	c1.4,3.3,7.5,19.2,0,35c-8.2,17.3-29.7,27.6-52.6,23.4c-40,1.6-119.4,11-196.5,64.2C134.2,204-17.9,312.2,1.7,467.1
	c1.2,9.6,14.3,102.6,91.4,159.6c3.5,2.6,72,51.9,151.9,48.8c29.2-1.2,58.4,0.9,87.6,0c19.2-0.7,41.1-5.1,52.6,7.7
	c6.1,6.8,7,15.7,7,22.2c-0.2,30.4-0.9,75.2-2.3,129.7c-2.1,84.6-3,126.9-6.5,171.5c-3.3,42.8-9.6,104-23.4,178.3
	c-1.2,1.4-4.7,6.3-4.4,13.1c0.2,5.8,3.3,13.1,6.5,13.1c1.9,0.2,5.6-1.9,10.3-21c10.7-15.9,27.8-39,51.9-63.5
	C444.4,1106,461,1093,471,1085c25.7-20.8,62.4-52.6,107.2-99.3c7.9-12.8,7-24.8,2.3-27.8c-4-2.3-11.2,0.5-17.5,5.8
	c-9.8,5.1-25.2,11.9-45.3,15.4c-14,2.3-50.2,8.4-73.8-8.2c-10.3-7.2-16.6-17.8-27.6-89c-8.2-51.9-8.2-89.7-8.2-165.6
	c0-11.7,0.2-22.9,7.5-33.6c16.1-25,52.6-24.3,86.7-27.8c79.9-8.2,137.8-38.5,177.1-59.1c0,0,57.9-30.8,90.2-71
	c9.1-11.2,17.5-24.3,25-39.3C799.4,476,851.9,357.1,794,235.3z M390.5,629.2c0.2,1.2,0.7,8.4-5.1,14.5c-5.8,6.3-13.3,5.8-14.5,5.8
	c-7.9,1.6-18.5,3-30.6,2.3c-10.3-0.7-18.9-2.6-25.7-4.4c-4.4-3-9.8-7.5-15.2-13.1c-4.4-4.7-7.7-9.3-10.3-13.3
	c-5.6-3-11.4-6.3-17.5-9.3c-11.2-5.8-22-10.5-32.2-14.7c-7.5-8.6-18-21.3-28.5-37.8c-17.3-27.6-61.2-108.2-42.3-209.6
	c5.6-29.4,22.9-122.9,105.8-170.1c41.6-23.6,82.9-26.2,106.1-25.7c1.2,0,11.7-0.2,18.2,8.2c3.7,4.9,4.2,10.3,4.2,12.4
	C398.9,326,394.7,477.6,390.5,629.2z M736.5,457.5c-12.1,26.9-52.6,42.1-93.5,25.7c-6.1-2.6-13.1-1.4-17.3,2.8
	c-4.9,4.9-4.7,11.4-4.4,12.4c-0.7,11.4-3,28.7-11.7,47.7c-15,31.8-39.7,47.9-59.1,60.5c-43.9,28-88.5,35.3-116.8,37.1
	c-4.7,0.2-8.2-1.2-10.3-2.1c-9.8-4.9-15.4-17.5-14.7-32.2c5.6-143.9,11.2-288.1,16.8-432.2c0.7-5.6,2.6-16.6,11-22.7
	c1.9-1.2,6.8-4.2,27.8-3.5c11.2,0.2,23.1,1.6,29.2,2.8c20.8,4.7,73.8,31.8,107.2,88.5c38.1,64.5,29.4,130.6,25.7,151.9
	c-4.9,10-2.6,19.4,1.4,21c3.7,1.6,10.7-2.3,15.2-10.3c14.3-13.8,28.3-27.6,42.5-41.6c3.5-1.9,12.6-5.8,23.4-3.5
	c14,2.8,26.6,15.4,26.9,29.9c0.2,6.8-2.6,12.4-4.2,15.2C733.7,409.2,747,434.6,736.5,457.5z"/>
</svg>
