<?xml version="1.0" encoding="utf-8"?>
<!-- Generator: Adobe Illustrator 19.2.0, SVG Export Plug-In . SVG Version: 6.00 Build 0)  -->
<svg version="1.1" id="Layer_1" xmlns="http://www.w3.org/2000/svg" xmlns:xlink="http://www.w3.org/1999/xlink" x="0px" y="0px"
	 viewBox="0 0 1000 1000" style="enable-background:new 0 0 1000 1000;" xml:space="preserve">
<path id="XMLID_15_" d="M24.7,816.3l26-50V408.2c7-5.8,18.6-14.2,34.7-19.6c22.2-7.4,33.5-2.7,41.6-12.1c9.6-11.2,5.7-32-1.7-45.1
	c-8-14.1-19.8-18.6-31.2-26c-15.5-10-34.9-28.1-50.3-64.1c0.6-64.4,1.2-128.8,1.7-193.2L0,3.9l549.8,31.2L650.3,0
	c-31.1,48.6-63.2,104.7-93.6,168.5c-22.9,48.1-41.7,94-57.2,136.9c-1.6-62.7-6.9-114.2-12.1-152.5c-3.5-25.5-7.9-52.2-29.5-72.8
	c-14.6-14-31.7-19.8-43.3-22.5c-52.6,1.7-105.1,3.5-157.7,5.2L250,639.9c-11.3,10.3-29.1,23.9-53.7,32.9
	c-34.8,12.7-57.6,6.8-62.5,19c-5.4,13.4,14,39.5,36.6,45.1c12.4,3.1,19.3-1.7,48.5-6.9c17.4-3.1,31.9-4.5,41.6-5.2
	c5,16.4,12.6,36.1,24.3,57.2c9.1,16.5,18.8,30.3,27.7,41.6C216.5,821.2,120.6,818.7,24.7,816.3z"/>
</svg>
