<?xml version="1.0" encoding="utf-8"?>
<!-- Generator: Adobe Illustrator 19.2.0, SVG Export Plug-In . SVG Version: 6.00 Build 0)  -->
<svg version="1.1" id="Layer_1" xmlns="http://www.w3.org/2000/svg" xmlns:xlink="http://www.w3.org/1999/xlink" x="0px" y="0px"
	 viewBox="0 0 1000 1000" style="enable-background:new 0 0 1000 1000;" xml:space="preserve">
<g id="XMLID_15_">
	<path id="XMLID_111_" d="M850.4,7.8c-1.5-3.6-3.4-6.3-4.8-7.8c-10.2,0.2-20.4,0.5-30.5,1c-6.3-0.2-17.9,0.5-30.8,6.5
		c-11.4,5.3-18.9,12.6-23,17.2c-1.9,3.9-4.4,9.2-5.8,16.2c-1,5.8-1.2,10.7-1,14.8c-2.4-1-5.3-1.9-8.5-2.4c-9.2-1.5-17,0.5-21.6,1.9
		c-23.3,27.9-46.5,55.7-69.8,83.6c-33.7,45.3-67.4,90.6-100.8,135.9c-8.2,14.3-21.6,23.7-35.4,23.3c-12.6-0.5-21.6-9.4-27.1-14.8
		c-10.2-9.9-14.3-20.8-16-26.7c-22.3-33.2-45.8-73.7-66.9-121.4c-13.6-30-24-58.9-32.2-85.3c-3.9-4.1-7.8-8.2-11.4-12.4
		c-16,1.5-31.7,2.9-47.7,4.4c-20.1,3.4-42.2,6.1-65.4,7.8c-44.6,2.9-85,1.2-119.7-2.4c-1.9,0.2-29.6,3.6-31,13.3
		c-1.2,7.8,14.8,18.9,40.5,26.2c2.9,0,10.7,0.7,18.2,6.3c6.3,5.1,9.2,10.9,10.2,13.8c17,22.5,33.7,45.3,50.4,68.8
		c57.4,80.4,110,159.9,158,237.7c2.2,1.9,8.2,7.5,10.4,16.7c3.4,14.5-5.6,25.9-6.8,27.4c-25.9,48.7-52.6,86.7-74.1,114.6
		c-40.5,51.9-73.7,81.2-117,119.2c-8.7,7.8-20.4,17.7-37.8,26.4c-12.8,6.5-64.2,32.7-98.1,12.1c-8.2-4.6-27.4-15.7-38.5-35.1
		c-5.1-9.4-11.1-15.3-14.1-14.3c-2.9,1.2-3.1,9.9,0,21.3c7,31.5,14.1,63.2,21.3,95c-5.1,5.6-8.7,11.4-11.1,17
		C-12.7,867.6,37,934.3,43.8,943c73.9-76.6,133-144.9,177.8-199.2c34.9-42.4,62.8-78.5,80.7-101.8c39-51.4,75.4-102,109-151.4
		c33-2.7,66.6-5.6,100.8-9c30.8-3.1,61.1-6.5,90.9-10.2c7.3-0.2,13.3-3.4,14.3-7c1-4.6-5.1-12.4-16.2-14.3
		c-14.5-23.3-29.1-46.3-43.4-69.5c-4.1-4.8-6.1-9.4-7.3-13.1c-7.3-24.5,13.1-47.2,15.3-49.7c25.2-26.4,50.4-53.1,75.8-79.7
		c20.1-46.3,67.1-68.3,103.9-56.5c35.4,11.4,48.2,50.4,49.7,54.8c2.2,5.8,8,8.2,11.6,6.3c2.4-1,3.9-4.1,3.9-7.3
		c-2.9-5.8-5.8-11.4-8.7-17.2c-0.7-1.9-1.9-4.8-3.9-7.8c-2.7-3.4-5.6-5.8-7.5-7c2.9-10.4,5.8-20.6,8.7-31c-4.8-4.4-7-10.9-5.6-17.2
		c1.9-8.7,9.7-12.1,10.4-12.4c1.2-7.8,2.7-15.3,3.9-23c-1-0.5-15-9.4-13.1-15.5c0.5-1.2,1.3-2.8,2.7-3.1c2.8-0.7,4.8,4.4,7.8,4
		c2.7-0.4,4.5-5.2,4.8-8.4c0.4-3.5-0.8-6.2-1.5-7.5c1.5,0.2,4.4,0.5,7.5-0.7c4.8-1.9,7-6.1,7.5-7c4.4-4.1,7-8,8.5-10.7
		c6.3-11.1,4.4-17.7,11.9-28.6c3.4-4.8,4.1-3.6,6.1-7.3C854.6,26.7,854.1,16,850.4,7.8z M725.7,154.3c0,1.2-0.7,1.9-1.9,2.2
		c-1,0.5-2.2,0-2.9-1c0.2-1.5,0.2-3.1,0.5-4.6c-1.5-1.5-1.9-2.9-1.5-3.6c0.5-0.7,2.4-0.5,4.4,1c3.4,0.7,5.3,2.7,5.1,4.1
		C729,153.4,727.4,154.1,725.7,154.3z M759.8,145.4c-1.7,1.5-3.4,2.2-4.6,2.7c-0.2-5.3-0.5-10.4-0.5-15.7c2.7-4.8,6.1-7.5,7.8-6.8
		c1.5,0.7,1.9,3.9,1.5,7.3C763.9,133.5,764.9,140.8,759.8,145.4z M770.2,130.4c1.5-4.1,2.7-8.2,4.1-12.4c0.7,0.7,1.2,1.2,1.7,1.2
		c3.9,0.5,7.8-11.1,8-12.1c1.2,5.6,2.4,11.6,3.1,18.4c0.7,5.8,1.2,11.6,1.2,16.7C782.4,138.3,776.3,134.5,770.2,130.4z M795.4,95.9
		c-0.2-0.2-1.5-6.3-7.3-8.5c-4.6-1.7-8.5,0.2-9.2,0.7c-5.8-4.1-11.6-8.2-17.2-12.4c-0.5-0.7-2.2-3.4-1.5-6.5c0.7-3.9,4.8-7,9.7-7.3
		c3.6,2.7,7.3,5.6,11.1,8.5c4.6,3.4,9.2,6.8,13.8,10.4c-0.5,2.4,0,4.4,0.5,5.8c0.7,2.7,2.4,3.6,2.4,5.6
		C797.6,94,796.4,95.2,795.4,95.9z"/>
	<path id="XMLID_16_" d="M516.3,553.5c16.6,0.3,26.5-4.4,32.6-9.1c10.9-8.4,14.8-20.8,29.2-24.2c1-0.3,3.7-0.4,9.1-0.8
		c26.7-1.7,31.4-0.5,39.4-2.7c5.8-1.6,13.8-5.1,22.3-13.6c2.2-0.5,8.7-1.5,15.5,1.9c10.2,5,12.6,15.6,12.9,17
		c34.7,51.7,56.3,84,69.3,103.4c27.1,40.5,39.6,60.3,63.2,84c22.8,22.9,44.8,38.6,60.2,48.5c0.8-0.1,4.1-0.4,6.8,1.9
		c2.9,2.4,3.5,6.5,2.7,9.1c-1.6,5-9.8,8.4-20.1,6.1c-26.9-6.1-48.4-6.6-62.5-6.1c-34.1,1.2-129.3,12.1-148.8,12.5
		c-2.2,0-6.8,0-11.4-2.7c-7-4-9.1-11-9.5-12.5c-9.7-15.3-19.3-30.7-29-46c-3.4-9.7-4-17.5-4-22.9c0.1-5.1,0.8-9.3-1.9-12.1
		c-3-3.2-8.4-2.9-12.5-2.3c-1-2.6-2.8-6.4-6.1-10.2c-3.9-4.6-8.1-7.2-10.8-8.5c-0.1-2.9-0.7-8.4-4-14.2c-4.1-7.4-10.2-11-12.8-12.4
		c-0.8-5.9-3.1-16.6-10.3-27.7c-6.6-10.1-14.5-16.2-19.3-19.4c-2.5-4-5-8-7.6-12c-2.2-3.9-8-14.7-3.4-20.4
		C509.2,553.6,515.2,553.5,516.3,553.5z"/>
</g>
</svg>
