<?xml version="1.0" encoding="utf-8"?>
<!-- Generator: Adobe Illustrator 19.2.0, SVG Export Plug-In . SVG Version: 6.00 Build 0)  -->
<svg version="1.1" id="Layer_1" xmlns="http://www.w3.org/2000/svg" xmlns:xlink="http://www.w3.org/1999/xlink" x="0px" y="0px"
	 viewBox="0 0 1000 1000" style="enable-background:new 0 0 1000 1000;" xml:space="preserve">
<path id="XMLID_15_" d="M33.7,776.4C40.5,649.6,47.3,522.8,54,396c-1-22.1-2.5-44.9-4.4-68.3c-1.4-16.8-3-33.3-4.8-49.3
	c6.8-1.4,15.9-4.1,25.5-9.5c17.1-9.6,27-22.7,31.8-30.2c-0.5-9-1.1-18-1.6-27.1C82.3,198.4,72.3,184,67.1,175
	c-7.2-12.4-14.9-25.9-11.1-41.5c2.2-9.1,7.5-15.4,11.1-19.1c0.1-8.2-0.8-30.4-15.9-52.5C37.9,42.5,20.6,33.5,13,30.1
	c0-8,0-15.9,0-23.9c38.8,5.8,84.3,9.9,135.3,9.5c46.3-0.3,88-4.2,124.1-9.5c-11,91.7-7.8,168.4-14.3,224.4
	c-8,68.2,10.4,88.4,20.7,95.5c26.2,18.1,50.3-14.1,148-30.2c52.2-8.6,85.4-6,122.5-33.4c15.1-11.1,25.4-23.1,31.8-31.8
	c1.4-28.4,1.1-61.7-3.2-98.7c-5.5-47.8-16.2-88.6-27.1-120.9C634.1,7.4,717.3,3.7,800.6,0c0,13.8,0,27.6,0,41.4
	c-3.9,3.6-11.1,11.6-14.3,23.9c-6,23.1,7.5,41.8,9.5,44.6c-0.5,39.8-1.1,79.6-1.6,119.3c-8.1-1.8-45-9.4-79.6,12.7
	c-19.9,12.7-33,31.4-38.2,46.1c-16.2,46.3,24.3,116.6,105,165.5c-4.6,10.1-12.4,30.6-11.1,57.3c1.4,29.6,13.1,50.9,19.1,60.5
	c3.2,66.8,6.4,133.7,9.5,200.5c-79.6,3.7-159.1,7.4-238.7,11.1c6.9-141.1,13.8-282.2,20.7-423.3c0.9-0.4,21.2-9.9,22.3-27.1
	c1.1-18-19.8-29.7-30.2-33.4c-21.3-7.6-47,1-66.8,20.7C423.5,346.9,340.7,373.9,258,401c7.4,119.3,14.9,238.7,22.3,358
	C198.1,764.7,115.9,770.6,33.7,776.4z"/>
</svg>
