<?xml version="1.0" encoding="utf-8"?>
<!-- Generator: Adobe Illustrator 19.2.0, SVG Export Plug-In . SVG Version: 6.00 Build 0)  -->
<svg version="1.1" id="Layer_1" xmlns="http://www.w3.org/2000/svg" xmlns:xlink="http://www.w3.org/1999/xlink" x="0px" y="0px"
	 viewBox="0 0 1000 1000" style="enable-background:new 0 0 1000 1000;" xml:space="preserve">
<path id="XMLID_15_" d="M197.3,18.2c86.5-6.1,173-12.1,259.5-18.2c-3,119.9-6.1,239.8-9.1,359.6c-32.2,0.1-56.2,17.8-59.2,37.9
	c-0.5,3.4-1.5,14,7.6,27.3c-1.4,1.8-15.2,20.1-9.1,33.4c6.4,13.9,34,21.4,63.7,6.1c1,90.5,2,181.1,3,271.6c-21,1-57.9,5.7-97.1,27.3
	c-25.8,14.2-44.2,31-56.1,44c-45,78.4-90,156.8-135.1,235.2c-18.7,38.9-35.8,42.3-42.5,42.5c-17.1,0.6-29.9-17.8-65.3-72.8
	c-17-26.5-36.4-57-57.7-91c5.6,0.5,11.1,1,16.7,1.5c27.7,44.9,70.7,73.1,109.3,66.8c43.8-7.2,65.9-56.3,85-98.6
	c20.6-45.6,25-87.1,25.8-112.3c12.5-99.4,20.8-213.1,19.7-338.4c-0.9-107.7-8.7-206.4-19.7-294.4c1.6-16.2,2.2-45.7-10.6-78.9
	C217.6,44.9,206.2,28.8,197.3,18.2z"/>
</svg>
