<?xml version="1.0" encoding="utf-8"?>
<!-- Generator: Adobe Illustrator 19.2.0, SVG Export Plug-In . SVG Version: 6.00 Build 0)  -->
<svg version="1.1" id="Layer_1" xmlns="http://www.w3.org/2000/svg" xmlns:xlink="http://www.w3.org/1999/xlink" x="0px" y="0px"
	 viewBox="0 0 1000 1000" style="enable-background:new 0 0 1000 1000;" xml:space="preserve">
<g id="XMLID_25_">
	<path id="XMLID_21_" d="M42.5,799.9c9.8-43.7,18.4-91.8,24.5-143.8c10-84.9,11.2-162,8.2-228.8c11.5,0,83-0.9,117.7-52.3
		c6-8.9,20.5-30.3,13.1-45.8c-16.7-34.7-129.3-7.7-134-6.5c2.4-32.8,3.3-68.9,1.6-107.9c-1-22.4-2.7-43.6-4.9-63.7
		c1.7-2.5,7.1-11.2,4.9-21.2C70.8,117,56.7,106.7,39.2,107C26.1,80.3,13.1,53.6,0,26.9c39.1,6.7,91.8,11.8,153.6,6.5
		c60.2-5.1,110.1-18.3,147.1-31.1c-16,144.8-26.4,302.2-27.8,470.7c-0.7,87.7,1.1,172.3,4.9,253.3c3,12.2,7.1,26,13.1,40.9
		c5.2,13,10.8,24.4,16.3,34.3c-25.5,0.1-51.1,0.1-76.8,0C167.3,801.4,104.6,800.9,42.5,799.9z"/>
	<path id="XMLID_22_" d="M299.8,396.7c-2.3,1.4-3.3,5.2-2.2,7.7c2.6,5.6,16.6,4.4,17.5,1.2C316.2,402.5,304.9,393.6,299.8,396.7z"/>
	<path id="XMLID_23_" d="M738.7-51.5c-47.4,38-96.1,79.3-145.4,124.2C506,152.1,429.5,231,362.8,306.4
		c-7.9,11.5-16.9,26.8-24.5,45.8c-6.9,17.2-10.8,32.9-13.1,45.8c13.9,4.1,37.8,13.3,60.5,34.3c16.9,15.7,25.9,31.4,29.4,37.6
		c22,38.6,83.7,143,166.7,284.9c41.1,9.8,83.7,21,127.5,33.8c71.3,20.8,137.8,43.5,199.4,67c-33.8-44.9-67.6-90.6-101.3-137.3
		c-75.7-104.7-147.2-208.1-214.6-310c-3-8.5-8.8-20.6-20.7-28.3c-6.3-4.1-22.1-12.1-85,4.9c-16.8,4.5-40,11.7-67,22.9
		c-21.1,5.1-42.9,1.6-53.9-11.4c-16.4-19.4-10.6-61.7,26.1-86.6c41.4-42.5,82.8-85,124.2-127.5c24.7-42.6,72.7-65.4,119.3-57.2
		c40.6,7.1,74.5,36.7,88.2,76.8c2.7-3.1,5.4-6.2,8.2-9.3c2-75.2,4-150.3,6-225.5C738.3-39.1,738.5-45.3,738.7-51.5z"/>
</g>
</svg>
