<?xml version="1.0" encoding="utf-8"?>
<!-- Generator: Adobe Illustrator 19.2.0, SVG Export Plug-In . SVG Version: 6.00 Build 0)  -->
<svg version="1.1" id="Layer_1" xmlns="http://www.w3.org/2000/svg" xmlns:xlink="http://www.w3.org/1999/xlink" x="0px" y="0px"
	 viewBox="0 0 1000 1000" style="enable-background:new 0 0 1000 1000;" xml:space="preserve">
<path id="XMLID_33_" d="M0,796.4c9.4-118.2,37.9-206.9,62.2-265.9c31.6-76.8,74-145.2,158.8-282c25.7-41.4,47.4-75.2,62.2-97.8
	c23.7-20.6,34.5-50.2,26.5-74.8c-8.2-25.2-33.6-37.6-41.4-41.4c-13.7-6.7-26.3-8.6-34.5-9.2c0-7.7,0-15.3,0-23
	c41.7,3.8,87.5,6.1,137,5.8c51.3-0.3,98.7-3.4,141.6-8.1c5.5,14.8,10.9,29.6,16.4,44.4c-2.7,8.7-12.4,42.7,4.3,80
	c13,29,34.9,44.1,43.7,49.5c74.8,200.3,149.6,400.5,224.4,600.8c15.3,18,30.7,36.1,46,54.1c-94.8-7.3-189.5-14.6-284.3-21.9
	C497.7,617,432.5,427.1,367.2,237.2c10.6-1.9,26.3-5.7,43.7-13.8c38.9-18.1,88.8-58.9,80.6-89.8c-4.4-16.3-23.5-24-40.3-31.1
	c-49.1-20.7-95.5-6.8-111.6-1.2c-12,26-30.8,65.1-56.4,111.6c-22.5,40.8-39.4,67.7-47.2,80.6c-22.6,37.1-88.4,145.8-101.3,268.1
	c-4.7,44.8-6.4,129.6,39.1,236C115.9,797.1,57.9,796.8,0,796.4z"/>
</svg>
