<?xml version="1.0" encoding="utf-8"?>
<!-- Generator: Adobe Illustrator 19.2.0, SVG Export Plug-In . SVG Version: 6.00 Build 0)  -->
<svg version="1.1" id="Layer_1" xmlns="http://www.w3.org/2000/svg" xmlns:xlink="http://www.w3.org/1999/xlink" x="0px" y="0px"
	 viewBox="0 0 1000 1000" style="enable-background:new 0 0 1000 1000;" xml:space="preserve">
<path id="XMLID_47_" d="M-0.1,794.7c18.6-76.9,43.3-160.4,76.3-248.5c60.3-161.5,132.6-296.1,200.7-403.7c-2.4-11-10-38.8-35.1-61.4
	c-14.6-13.1-29.6-19.7-39.5-23c-4.4-10.6-8.8-21.2-13.2-31.8c39.2,7.9,97,14.8,165.6,5.5c48.7-6.6,89.1-19.5,119.6-31.8
	c7.9,32.1,15.9,64.3,24.1,96.5c49.5,193.6,103.2,381.2,160.3,562.6c4.3,11.1,18.5,43.6,50.5,55.9c40.9,15.7,82.1-12.5,108.6-30.7
	c9.2-6.3,69.5-48.8,76.8-96.5c10.8-71-93-172.5-270.9-212.8c25.6-28.2,48.3-48.7,64.7-62.5c31.2-26.2,53.9-40.2,61.4-69.1
	c3.6-13.7,2.5-25.9,1.1-34c28.7,8.9,69.3,23.1,116.3,45c55.3,25.8,83.3,39.2,103.1,65.8c35.1,47,30.2,104,28.5,122.9
	c-1.5,16.8-6.3,50.1-71.3,151.4c-63.1,98.2-95.9,148.1-160.2,185.4c-34.3,19.9-66.1,29.8-87.8,35.1c-66.9,8-133.8,16.1-200.7,24.1
	c-8-28.2-16.1-56.3-24.1-84.5c10.7-1.4,26.6-3.5,46.1-5.5c50.2-5.2,57.6-3.3,69.1-9.9c27.8-15.8,45.4-61,30.7-84.5
	c-13.4-21.5-50.1-19.2-95.4-16.5c-32.3,2-59,8.4-77.9,14.3c-1.8-4.4-3.7-8.8-5.5-13.2c-2.3-25.5-5.6-51.9-9.9-79
	c-18.5-116.8-52.1-217.9-88.9-301.7c3.5,2.3,24.7,15.4,47.2,7.7c24.7-8.5,31.8-35.8,35.1-48.3c1.8-6.9,14.6-56.3-18.6-81.2
	c-17.8-13.4-46-17.5-68-3.3c-23.8,15.3-33.8,47.7-21.9,76.8c-15.8,14.5-37.8,36.4-60.3,65.8c-95.2,124.1-106.2,257.5-108.1,294.6
	c-5.1,98.1,18.4,177,37.3,224.9C110.3,795.4,55.1,795-0.1,794.7z"/>
</svg>
