<?xml version="1.0" encoding="utf-8"?>
<!-- Generator: Adobe Illustrator 19.2.0, SVG Export Plug-In . SVG Version: 6.00 Build 0)  -->
<svg version="1.1" id="Layer_1" xmlns="http://www.w3.org/2000/svg" xmlns:xlink="http://www.w3.org/1999/xlink" x="0px" y="0px"
	 viewBox="0 0 1000 1000" style="enable-background:new 0 0 1000 1000;" xml:space="preserve">
<path id="XMLID_49_" d="M0,793.3c44.5-4.6,94.9-7,150.3-5c35.9,1.3,69.4,4.3,100.2,8.4c3.3-117.5,6.7-234.9,10-352.4
	c-3.4-36.2-6.7-72.4-10.1-108.6c1.3-2.4,15.4-28.2,45.1-31.7c23.1-2.8,46.2,9.1,58.5,30.1c36.3,5.1,78.8,13.7,125.3,28.4
	c47.8,15.1,88.7,33,121.9,50.1c0.3,35.7,0.3,71.9,0,108.6c-0.7,80.6-3,159.1-6.7,235.5c-2.2,6.7-5.3,14.8-10,23.4
	c-4.4,8.1-9.1,14.8-13.4,20c88-2.2,175.9-4.5,263.9-6.7c-3.8-3.1-8.8-8-13.4-15c-4.6-7-7-13.6-8.4-18.4
	c2.2-158.1,4.5-316.2,6.7-474.3c-24.7-6.2-42.5-28.1-43.4-53.4c-1-25.6,15.5-49,40.1-56.8c2.7-23.1,8.2-52.5,20-85.2
	c10.7-29.4,23.5-53.4,35.1-71.8c-88-4.5-175.9-8.9-263.9-13.4c1.7,93,3.3,185.9,5,278.9c6.4,15.3,3.2,33.1-8.4,45.1
	c-11.6,12.1-29.4,16-45.1,10c-71.8-19.5-143.6-39-215.4-58.5c-13.8-3.3-34.4-10.7-51.8-28.4c-31.9-32.5-39.2-85.9-20-137
	c3.3-38.4,6.7-76.8,10-115.2c-31.3,2.6-64.2,4.3-98.5,5C125.1,6.2,70.3,4.1,20,0c13.4,76.8,26.7,153.7,40.1,230.5
	c45.9-2.5,89.3,14.8,106.9,46.8c26,47.2-2.1,130-83.5,163.7C79,515.1,66,603.7,35.1,699.8C24.3,733.4,12.4,764.5,0,793.3z"/>
</svg>
