<?xml version="1.0" encoding="utf-8"?>
<!-- Generator: Adobe Illustrator 19.2.0, SVG Export Plug-In . SVG Version: 6.00 Build 0)  -->
<svg version="1.1" id="Layer_1" xmlns="http://www.w3.org/2000/svg" xmlns:xlink="http://www.w3.org/1999/xlink" x="0px" y="0px"
	 viewBox="0 0 1000 1000" style="enable-background:new 0 0 1000 1000;" xml:space="preserve">
<path id="XMLID_50_" d="M29.7,791.5c78.2,1.5,156.3,2.9,234.5,4.4c-3.5-8.8-7-18.7-9.9-29.7c-4.2-15.9-6.5-30.4-7.7-42.9
	c3.3-140.9,6.6-281.8,9.9-422.7c3.1-4.5,8.4-10.6,16.5-15.4c20.2-11.9,41.8-5.8,46.2-4.4c65.3,11.4,130.6,22.8,195.9,34.1
	c4,0.1,29.2,1.3,46.2,22c14.8,18,17.7,43.6,7.7,66c-7.3,111.9-14.7,223.8-22,335.8c0.4,3.2,0.7,8.4-1.1,14.3
	c-3.4,11.1-11.6,16.9-14.3,18.7c2.2,6.6,4.4,13.2,6.6,19.8c58,1.5,116,2.9,173.9,4.4c37.1,5.3,103.6,9.7,179.4-15.4
	c56.9-18.8,94.6-46.2,115.6-61.6c92.2-68,133.2-152,159.6-207c35-73,53.9-112.4,39.6-157.4c-12.5-39.6-44.3-63.5-100.2-105.7
	c-43.8-33.1-83.7-54.8-111.2-68.3c-15.2,21.7-33.7,45.2-56.1,69.4c-31.4,33.7-62.7,60.1-90.3,80.4c51.4,23.4,91.2,47.5,118.9,66
	c74.3,49.7,86.7,75.4,90.3,83.7c18.5,42.5,7.7,84.3,2.2,105.7c-26.4,102.1-121.7,147.9-149.7,159.6c-30.5,12.8-81.5,34.2-115.6,8.8
	c-19.1-14.3-25.3-37.6-27.5-51.7c6.6-52.8,13.2-105.7,19.8-158.5c-4.4,2.1-59.9,27.6-107.9-3.3c-6.6-4.3-34.1-22-36.3-46.2
	c-3.5-37.1,52.5-83.6,144.2-103.5c-3.8-13.7-9.8-38.2-13.2-69.4c-6.9-62.8,1.6-101.9,14.3-220.2c2.1-19.8,5.4-51.2,8.8-90.3
	c-93.9,2.2-187.9,4.4-281.8,6.6c3.3,5.9,6.6,11.7,9.9,17.6c9.1,6.9,22.9,19.3,34.1,38.5c15.3,26.3,17.4,51.4,17.6,63.8
	c0.4,18.3,0.7,36.7,1.1,55c-0.4,26.8-0.7,53.6-1.1,80.4c-92.8-7.7-185.7-15.4-278.5-23.1c-11.5-0.3-19.1-4.1-23.1-6.6
	c-17.7-11.2-25.9-36.1-20.9-62.7c3.3-58.3,6.6-116.7,9.9-175c-24.2,1.2-49.1,2-74.6,2.2C122.3,8.4,59,5.4,0,0
	c9.5,23.1,19.1,46.2,28.6,69.4c88.3-37.8,160.2-39.9,179.4-9.9c12.2,19,5.7,54.4-13.2,73.8c-14.2,14.6-32.5,16.9-67.2,20.9
	c-31.5,3.6-57.8,2.1-76,0C62.4,347.4,58,548.2,34,755.3C32.7,767.3,31.2,779.4,29.7,791.5z"/>
</svg>
