<?xml version="1.0" encoding="utf-8"?>
<!-- Generator: Adobe Illustrator 19.2.0, SVG Export Plug-In . SVG Version: 6.00 Build 0)  -->
<svg version="1.1" id="Layer_1" xmlns="http://www.w3.org/2000/svg" xmlns:xlink="http://www.w3.org/1999/xlink" x="0px" y="0px"
	 viewBox="0 0 1000 1000" style="enable-background:new 0 0 1000 1000;" xml:space="preserve">
<path id="XMLID_77_" d="M569.7,159.2c-55.7,53.4-73.6,62.9-78.1,59.4c-6.2-5.2,17.2-33.4,11-74.9c-3.2-20.7-12.2-34.9-14-37.4
	c-17.2-26-38.4-27.2-64.2-46.9c-13.2-10.2-31-28-45.2-59.4c-17.2,22.1-39.2,47.2-67,72.6c-30.5,27.9-60.2,49-85.8,64.7
	c-41.9,34.1-104.1,93.5-152.9,184.1C46.9,370.8-14.9,485.5,3.3,624.1C31.8,841.6,236.1,955,262.1,968.9
	c19.4-22.2,48.8-55.1,86.4-93.1c73.5-74.4,109.8-99.6,143-131.6c17-16.4,170-167.6,157.4-368.1C646.5,335.8,634.9,252.3,569.7,159.2
	z M474.3,720.8c-1.7,4.5-19,44.2-63.9,56.2c-46.4,12.5-82.4-16-85.9-18.7c-59.9,24-108.8,23.5-137.3,20.2
	c-25.7-2.7-45.2-5-54.4-18.7c-17.7-25.5,7-80.6,62.4-140.3c-23.7-23-65.6-70.6-81.1-142C78.4,314.2,216,187.4,223.2,181.1
	c27.2,6,159.3,38.9,238.6,166.7C569.7,521.6,480.3,709.1,474.3,720.8z"/>
</svg>
