<?xml version="1.0" encoding="utf-8"?>
<!-- Generator: Adobe Illustrator 19.2.0, SVG Export Plug-In . SVG Version: 6.00 Build 0)  -->
<svg version="1.1" id="Layer_1" xmlns="http://www.w3.org/2000/svg" xmlns:xlink="http://www.w3.org/1999/xlink" x="0px" y="0px"
	 viewBox="0 0 1000 1000" style="enable-background:new 0 0 1000 1000;" xml:space="preserve">
<path id="XMLID_56_" d="M6.4,793.6c11-24.6,25.8-61.9,36.8-108.8c22.2-94.3,13.1-159.4,9.6-278.4C51.2,353.1,50.4,277,54.4,184
	c0.1-21.4-1.8-49-9.6-80C33.6,59.1,14.7,25.2,0,3.2c144.6,8.6,298.5,12.9,460.8,11.2C590.3,13,714.2,7.9,832,0
	c-8.2,95.7-15.2,193.9-20.8,294.4c-7.5,134.6-12.2,265.3-14.4,392c10.1,33.6,20.3,67.2,30.4,100.8c-21.3-3.1-44.3-5.4-68.8-6.4
	c-72-2.8-134.6,6.9-184,19.2c6.7-44.1,11.8-94.6,12.8-150.4c1.2-63.6-3.1-120.6-9.6-169.6c11.1-7,28.1-16.9,49.6-27.2
	c52-24.8,74.8-24.4,88-46.4c10.8-18.1,10.4-43.2,0-60.8c-16.3-27.5-58.8-39.6-100.8-22.4c-2.1-70.4-4.3-140.8-6.4-211.2
	c0.1-3,0.4-23.4-16-38.4c-13.6-12.4-29.8-12.8-33.6-12.8c-33.4-1.4-67-3-100.8-4.8c-46.3-2.4-92.2-5.1-137.6-8
	c-2.2-0.3-40.2-4.9-64,24c-18.5,22.4-20.6,55.2-4.8,81.6c-1.1,77.9-2.1,155.7-3.2,233.6c22.4,35.1,20.7,55.5,16,67.2
	c-12,29.7-52,25.1-75.2,64c-3.3,5.6-20.2,35.3-8,57.6c11.3,20.8,45.3,30.2,83.2,19.2c-5.4,24.1-10.1,53.9-11.2,88
	c-1.2,36.7,2.1,68.7,6.4,94.4c-37.1-3.4-80.8-4.8-129.6-1.6C83,779.1,41.6,785.8,6.4,793.6z"/>
</svg>
