<?xml version="1.0" encoding="utf-8"?>
<!-- Generator: Adobe Illustrator 19.2.0, SVG Export Plug-In . SVG Version: 6.00 Build 0)  -->
<svg version="1.1" id="Layer_1" xmlns="http://www.w3.org/2000/svg" xmlns:xlink="http://www.w3.org/1999/xlink" x="0px" y="0px"
	 viewBox="0 0 1000 1000" style="enable-background:new 0 0 1000 1000;" xml:space="preserve">
<path id="XMLID_83_" d="M419.4-124.8c-5.7-0.5-27.1-2.1-45.9-19.3c-18.6-17-22-38.1-23-43.9c-8.3,0.5-16.5,1.1-24.8,1.8
	c0.2,7.6-0.7,24.8-11.5,42c-16.5,26.6-44.1,33.3-49.8,34.5C194-41,123.5,27.7,53,96.1c14.7-13.1,50.3-39.7,88.9-29.6
	c33.8,9,50.5,40.9,63.2,65c17,32.4,20.4,62.7,21.1,80.4c0.5,96.5,1.1,192.7,1.8,289.2c0.7,3.7,6.9,39.3-17.2,63.2
	c-9.4,9.2-20,13.3-26.9,15.2c-22.3,9-46.9,20.2-72.6,34.5C68.9,637.5,34.6,663.4,8,686.6c43.2-2.3,105,0.2,162.6,26.9
	c20,9.2,34,18.8,44.1,34.5c20.7,32.4,11,70.7,7.6,82.2c-3.9,119.2-7.6,238.6-11.5,357.8c8.7-19.8,26.9-53.3,61.3-84.1
	c36.7-33.1,74.6-47.3,95.5-53.7c-1.8-6.9-3.7-14-5.7-20.9c-13.6,0-33.1-2.1-51.7-13.6c-8.7-5.3-38.1-25.7-53.5-116.7
	c-6.4-38.4-11.7-97.2,0-170.4c24.6-13.3,59.9-33.3,101.5-59.3c61.2-38.3,128.9-81,183.8-133.8c22.7-22,119.2-114.8,141.5-220.3
	C714.7,169.4,604.5-5.6,419.4-124.8z M532.4,512.5c-14.7,25.5-41.3,48.2-49.8,55.4c-54,46.2-112.1,62.5-145.4,68.9
	c-3.9,3-21.4,14.9-40.2,9.6c-13.3-3.9-20.4-14.5-24.8-21.1c-26-39.3-19.3-105.9-17.2-122.4V102.8c-7-19.3-6.3-39.3,3.6-47.8
	c13.3-11.3,47.1-5.3,71,26.9c31.9,9.6,57.2,9.6,74.6,7.6c37.4-4.4,55.1-19.3,80.4-9.6c17.9,7.1,27.3,21.8,34.5,32.6
	c4.6,7.1,37,57.4,11.5,91.9c-15.4,20.4-45.9,28.5-76.7,21.1C536.5,328.8,572.5,442.7,532.4,512.5z"/>
</svg>
