<?xml version="1.0" encoding="utf-8"?>
<!-- Generator: Adobe Illustrator 19.2.0, SVG Export Plug-In . SVG Version: 6.00 Build 0)  -->
<svg version="1.1" id="Layer_1" xmlns="http://www.w3.org/2000/svg" xmlns:xlink="http://www.w3.org/1999/xlink" x="0px" y="0px"
	 viewBox="0 0 1000 1000" style="enable-background:new 0 0 1000 1000;" xml:space="preserve">
<path id="XMLID_57_" d="M576.4,653.7c-34.8,20.4-81.7,53.1-126.8,103.7c-33.9,38.1-57.2,75.4-73,105.7
	c-29.4,4.3-109.1,11.8-192.1-32.7c-52.2-27.9-84.6-65.1-101.8-88.4c29.1-34.8,56.3-67.7,84.5-101.8c11.2-13.6,24.4-30,19.2-44.2
	c-4.1-11.2-18.4-17.7-30.7-17.3c-15.9,0.6-30.3,12.9-34.6,30.7c-12.1-1.7-28.2-1.9-36.5,7.7c-8.9,10.2-2,23.5-9.6,38.4
	c-4.4,8.6-14.3,18.9-38.4,25c-16.6-29-39.7-79-40.4-142.1c-0.9-85,39.3-145.3,103.7-242.1c28.9-43.3,74.4-110.5,155.6-178.7
	C317.1,66.1,376.3,32.9,420.8,12c19.7-2.9,38.7,5.5,48,21.1c9.7,16.2,4.8,33.4,3.8,36.5c-12.1,7.5-43.6,29.1-61.5,71.1
	c-22.3,52.4-7.8,99.6-3.8,111.4c-1.9,5.1-3.8,10.2-5.8,15.4c-15.1-18-42.5-46.1-84.5-67.2c-33.4-16.8-57.1-28.7-82.6-23.1
	c-74.2,16.4-94.8,165.2-98,192.1c-3.5,29.8-8.1,67.9,3.8,115.3c19.5,77.7,77.7,158.5,171,196C447.4,735.3,565.8,660.6,576.4,653.7z"
	/>
</svg>
