<?xml version="1.0" encoding="utf-8"?>
<!-- Generator: Adobe Illustrator 19.2.0, SVG Export Plug-In . SVG Version: 6.00 Build 0)  -->
<svg version="1.1" id="Layer_1" xmlns="http://www.w3.org/2000/svg" xmlns:xlink="http://www.w3.org/1999/xlink" x="0px" y="0px"
	 viewBox="0 0 1000 1000" style="enable-background:new 0 0 1000 1000;" xml:space="preserve">
<path id="XMLID_79_" d="M27.7,126.1c10.6-4.1,30.4-10,54.5-6.2c9.7,1.5,17.9,4.3,24.4,7.1c4.4,2.2,10.1,6,13.4,12.6
	c2.6,5.3,2.4,9.8,2.8,14.6c0.5,6.8,2.5,16.7,9.1,28.8c-5.9,5.4-13.4,11.2-22.8,16.2c-29.9,15.8-59.5,13.1-72.9,11
	c-2.8,5.3-5.6,10.5-8.4,15.8c3.6,5.8,10.3,18.7,10.8,36.2c0.3,13.9-3.4,24.7-6,30.7c2.8,48.5,4.1,99.5,3.6,152.7
	c-1.3,121.1-12,232.1-27.4,330.8c6.7,5.3,13.3,10.5,20,15.8c77.6,2.1,140.4,0.7,183.8-1.1c58.5-2.3,107.3-6.2,180.7-2.6
	c35.2,1.7,64.1,4.6,83,6.7c106.8-1.4,214.9-4.3,324.1-8.8c14-0.6,28-1.2,42-1.8c10.4-2.6,23.6-5,38.9-5.5
	c19.3-0.6,35.7,1.9,47.8,4.7c1.7,0.8,4.4,2.4,6.8,5.3c3.5,4.1,4.4,8.5,4.7,10.5c3.8,0.8,8.6,1.5,14.2,1.6c6,0,11.2-0.7,15.2-1.6
	c2.4-1.9,10.9-8.3,22.6-7.4c4.7,0.4,8.5,1.9,11,3.2c12.2,7.4,25.2,4.5,29.4-2.6c3.6-6,0.1-13.9-0.5-15.2c-2.9-6.4-5.7-13.4-8.4-21
	c-4.1-11.7-7-22.8-9.1-32.7c2-22.2,2.5-61.2-13-106c-13.6-39.2-33.9-66.8-47.8-83c-22.8,6.2-44.1-4.8-49.4-20.5
	c-6-17.8,10.5-35.9,22.1-43.6c9.6-6.4,19.4-8,25.2-8.4c16.8-10.9,33.6-21.7,50.4-32.6c6.3-10.5,12.6-21,18.9-31.5
	c1.2-17.7,2.4-35.4,3.7-53.2c-1.8-48-1.6-100.9,2.1-158c4-61.9,11.5-118.6,20.5-169.1c4.2-3.7,4.8-10.1,1.6-14.2
	c-3.5-4.5-10.6-5.2-15.2-1.1c-34.1,6.4-70.7,12-109.8,16.3c-47.4,5.2-91.9,7.7-132.9,8.4c-2.5,1.7-8.3,6.2-11,14.2
	c-5.2,15.3,6.2,28.7,6.8,29.4c4,29.1,7.3,59.6,9.5,91.4c6.7,97.3,1.9,185.5-8,262.1c-0.1,85.1-0.3,170.2-0.4,255.3
	c0.3,1.4,4.2,20.9-10,35.2c-12,12.1-27.6,11.2-29.9,11c-34.6,7.5-75.6,13.8-121.9,15.8c-31.2,1.3-59.9,0.5-85.6-1.6
	c-8.1-4.1-11.4-9.5-12.6-12.1c-6.1-12.6-0.5-31,15.2-44.1c8.3-43.7,21.1-92.6,41-144.4c7.1-18.5,14.6-36,22.3-52.6
	c1.7-12.8,3.1-26.3,4-40.4c2-31.5,1.2-60.5-1.1-86.1c-23.9-51.8-48.5-125.9-47.8-215.4c0.1-19.7,1.5-38.3,3.7-55.7
	c-3.8-12.8-11.1-19.9-15.2-18.9c-3.8,0.9-6.3,9-5.8,18.9c-4.5,13.8-10.2,28.6-17.3,44.1c-13.8,29.9-29.5,54.5-44.1,74.1
	c-0.3,2.8-3.2,28.1-22.1,36.8c-2.7,1.2-6.3,2.4-10.9,2.7c-1.8,4.3-3.6,8.6-5.4,13.1c-3.8,9.5-7.3,18.8-10.5,27.8
	c-9.2,2.6-16.3,9.8-18.4,18.9c-2.3,10.4,2.3,21.4,11.6,27.3c1.6,40.8,8.5,92.4,28.9,148.6c7.1,19.6,15,37.5,23.1,53.6
	c10.5,11,21,22.1,31.5,33.1c12.2,30.7,11.5,53.4,8.4,68.8c-3,14.6-7,16.9-11,38.3c-4.1,22-2.2,32.6-10.5,43.6
	c-6.8,9-16.5,13.1-23.6,15.2c-32.1,5.6-67.9,10.2-107.2,12.6c-35.6,2.2-68.7,2.3-98.7,1.1c-8.8,1.4-17.7-2-23.1-8.9
	c-7.3-9.4-4.5-20.3-4.2-21.5c1.9-73.9,3.9-147.8,5.8-221.7c-3.6-4.8-11.3-16.6-12.6-33.6c-1.6-21.1,7.9-36.3,11-41
	c1.3-27.1,2.7-54.2,4-81.4c-5.4-60.9-6.6-131.6,1.8-209.6c3.3-30.5,7.7-59.4,12.8-86.6c0.3-5.5,0.5-10.9,0.8-16.4
	c5.9-10.4,4.3-20.8-1-24.2c-3.3-2.1-7.6-1.3-10-0.5c-9.8,0.8-24.7,2.1-42.5,4.7c-43.8,6.4-63,13.9-88.2,17.9
	c-21.9,3.5-53.9,5.2-95.1-4.2c-10.3-4.5-22.2,0.3-26.3,10C-2.8,42.2,2.8,54.8,14,58.3C18.6,80.9,23.1,103.5,27.7,126.1z"/>
</svg>
