<?xml version="1.0" encoding="utf-8"?>
<!-- Generator: Adobe Illustrator 19.2.0, SVG Export Plug-In . SVG Version: 6.00 Build 0)  -->
<svg version="1.1" id="Layer_1" xmlns="http://www.w3.org/2000/svg" xmlns:xlink="http://www.w3.org/1999/xlink" x="0px" y="0px"
	 viewBox="0 0 1000 1000" style="enable-background:new 0 0 1000 1000;" xml:space="preserve">
<path id="XMLID_65_" d="M112.1,389c8.4-53.6,19.8-111,35.2-171.4c9.6-37.8,20-73.7,30.8-107.7c5-9.9,15.4-27.1,35.2-39.6
	c18.1-11.4,34.7-12.9,61.5-15.4c30.5-2.8,45.8-4.2,59.3,4.4c18.9,12.1,13.3,29.3,28.6,52.7c28.1,43.3,78.1,32.4,92.3,61.5
	c8,16.5,4.8,46-44,103.3c-5.3,3.2-14.4,7.8-26.4,8.8c-24.5,2.1-42.1-12-46.2-15.4c4.1,93.9,3.6,197.8-4.4,309.9
	c-5.5,76.5-13.9,148.5-24.2,215.4c32.7-6.2,72.8-11.1,118.7-11c53.8,0.2,100,7.2,136.3,15.4c-6.6-17.8-15.9-45.1-24.2-79.1
	c-24.3-100.1-18.4-171.3-13.2-336.3c1.4-42.7,3.2-108,4.4-189c-1.5-38.8-2.9-77.7-4.4-116.5c6.5-6.4,15.1-13.5,26.4-19.8
	C581.4,44,608.2,43.3,622,44c4.8-0.7,49-6.5,81.3,26.4c24.8,25.2,26.2,56.4,26.4,63.7c16.8,25.6,34.2,55.6,50.5,90.1
	c23.3,49.2,38.4,95.1,48.4,134.1c3.5-67.4,12.3-144.6,30.8-228.6C869.6,82.9,881.7,39.6,894.5,0C732.9,9.9,565,16.8,391.2,19.8
	c-134,2.3-264.5,2.2-391.2,0c20.4,56.2,40.3,115.6,59.3,178C79.5,263.9,97,327.8,112.1,389z"/>
</svg>
