<?xml version="1.0" encoding="utf-8"?>
<!-- Generator: Adobe Illustrator 19.2.0, SVG Export Plug-In . SVG Version: 6.00 Build 0)  -->
<svg version="1.1" id="Layer_1" xmlns="http://www.w3.org/2000/svg" xmlns:xlink="http://www.w3.org/1999/xlink" x="0px" y="0px"
	 viewBox="0 0 1000 1000" style="enable-background:new 0 0 1000 1000;" xml:space="preserve">
<path id="XMLID_67_" d="M57.2,106.9c-3.9-12.3-10-27.5-19.6-43.7C25.2,42.2,11.1,26.9,0,16.6c51.6,2.7,108.7,3.2,170.2,0
	C225,13.7,275.9,8.3,322.3,1.5c-5,15.8-10.3,38.5-10.5,66.3c-0.3,33.8,7.1,59.4,10.5,70.8c14.7,48.9,69.6,219.9,147.6,451.8
	c12.1,4.5,24.9,2.9,33.1-4.5c4.4-4,6.5-8.7,7.5-12c10.5-88.9,21.1-177.7,31.6-266.6c13-68.5,34.3-121.4,51.2-156.6
	c28.1-58.6,48.8-101.8,96.4-134c47.8-32.4,98.5-37.3,126.5-37.7c-10.6,39.3-20.8,94.7-18.1,161.2c1.9,46.3,9.6,86.1,18.1,117.5
	c-3.5,0.5-7,1-10.5,1.5c0.4-11.9,0.2-47.4-24.1-69.3c-36.5-32.9-99.1-10.1-125,4.5c-61.9,35-91.7,120.4-82.8,216.9
	c-2-0.7-11.9-3.7-22.6,1.5c-10.5,5.1-14.3,14.6-15.1,16.6c5.5,23.6,11,47.2,16.6,70.8c-15.7,81.2-28.3,171.4-34.6,269.6
	c-3,46.5-4.4,91.3-4.5,134c-2.1,7.5-14.4,53.6,13.6,99.4c27.7,45.3,73.6,55.6,81.3,57.2c-21.7,13.5-46.7,31.7-72.3,55.7
	c-34.5,32.5-58.8,65.4-75.3,91.9c7.4-44.1,13.6-90.9,18.1-140.1c10.5-114.5,9.6-219.4,3-311.8c-14.6-4.8-32.9-9.1-54.2-10.5
	c-49.9-3.4-89.6,11-111.5,21.1c-50.2-168.2-100.4-336.4-150.6-504.6c5.2-10.9,36.7-79.8,3-138.6c-17.2-30-57.4-67.6-85.8-55.7
	C66.4,74.6,59.8,95.5,57.2,106.9z"/>
</svg>
