<?xml version="1.0" encoding="utf-8"?>
<!-- Generator: Adobe Illustrator 19.2.0, SVG Export Plug-In . SVG Version: 6.00 Build 0)  -->
<svg version="1.1" id="Layer_1" xmlns="http://www.w3.org/2000/svg" xmlns:xlink="http://www.w3.org/1999/xlink" x="0px" y="0px"
	 viewBox="0 0 1000 1000" style="enable-background:new 0 0 1000 1000;" xml:space="preserve">
<path id="XMLID_60_" d="M0,793.3c246.7,2.1,493.7,4.6,740.7,6.7c-0.8-26.6-7.5-179.4-125.8-274.9c-92.1-74.4-199.3-78.7-263.1-80.5
	c-28-0.8-56.1,1.4-56.1,1.4c-8.6,0.7-15.6,1.4-19.9,1.9c0-7.1,0-14.2,0.1-21.2c0-26.1-0.1-52.5-0.4-79.2c-0.4-34.4-1-68.3-1.9-101.8
	c96.2-1.6,173.9-13,228-23.5c98.2-19,124.1-35.9,140.8-51.4C701.2,116.6,701.8,31.2,700.5,0L27.6,0.5c5.6,5.7,14.5,16.2,20.3,31.8
	c4.5,12.1,5.6,22.9,5.7,30.2c-1.3,225.8-2.4,451.4-3.5,677.2c-2.9,7.4-8,17.6-16.8,27.9C21.4,781.7,8.2,789.4,0,793.3z M462.4,42.4
	c6.9,17.6,18.5,55.6,3.5,93.9c-23.4,59.5-102.6,97.3-192.2,80.5c-1.1-57.7-2.2-115.5-3.4-173.2C334.3,43.1,398.3,42.7,462.4,42.4z
	 M173.5,332.8c3-4,13.1-1.6,14.2,1.9c0.5,3.2-6.7,9.9-11.3,7.8C173.2,340.9,171.9,335.5,173.5,332.8z M259.6,520
	c6.1,2.5,10.9,5.3,14,7.3c0.4-13.8,0.7-27.6,1.1-41.3c18.6-2,46.2-3.8,79.3-1.1c53.3,4.4,102.5,8.4,139.1,39.7
	c63,53.9,73.8,174.6,24.1,218.6c-11,9.7-23.8,14.6-35.4,17.2c-31.8-0.4-63.8-0.8-95.9-1.1c-38-0.3-75.9-0.5-113.5-0.6
	c0.4-53.6,0.7-107.3,1.1-160.9c-4.1,3.8-10.8,9-20.1,12.6c-21.4,8.4-41.2,1.8-60.5-3.2c-29-7.5-48.8-22.5-59.8-31.9
	c4.9-15.7,12.3-25.9,17.4-31.6C177.8,512.9,225.6,506.1,259.6,520z M144.6,372c2.4,0.8,3.2,4.3,2.1,5.6c-1.3,1.9-6.7,0.5-7.2-1.6
	C139.2,374.4,141.9,371.2,144.6,372z M132.8,200.6c2.7,2.4,2.1,8.6-1.1,10.5c-4,2.7-12.1-2.9-11.8-6.7
	C120.4,200.9,129.3,197.1,132.8,200.6z"/>
</svg>
