<?xml version="1.0" encoding="utf-8"?>
<!-- Generator: Adobe Illustrator 19.2.0, SVG Export Plug-In . SVG Version: 6.00 Build 0)  -->
<svg version="1.1" id="Layer_1" xmlns="http://www.w3.org/2000/svg" xmlns:xlink="http://www.w3.org/1999/xlink" x="0px" y="0px"
	 viewBox="0 0 1000 1000" style="enable-background:new 0 0 1000 1000;" xml:space="preserve">
<path id="XMLID_15_" d="M98.9,353.1c-6.5-57.9-18.6-126.2-41.1-200.9C40.4,94.3,20.1,43.5,0,0c100.3,4.3,201.8,9.4,304.4,15.2
	C436.3,22.7,566.2,31.4,694,41.1c-94.9,155.8-189.8,311.5-284.6,467.3c4.5,9.4,9.9,16.3,15.2,21.3c29.8,28.2,84.6,27.6,140,3
	c4.8-1.6,63.8-20.2,100.5,13.7c3.3,3,18.5,17.7,24.4,48.7c3.7,19.6,8.4,71.1-48.7,147.6c-86.7,116.4-223.2,166.2-309,196.3
	c-63.1,22.2-157.9,49.4-278.5,60.9c4.8-47.8,6.6-104.4,1.5-167.4c-3.2-39.4-8.7-75.5-15.3-108c6.1-0.5,12.2-1,18.3-1.5
	c23.3,44.2,39.9,75.9,47.2,89.8c38.2,73,48.1,92.6,73.1,108.1c30.7,19,62.8,18.6,74.6,18.3c65.1-1.7,111-47.3,162.9-98.9
	c25.4-25.2,59.7-63.7,92.8-117.2c-0.5-5.1-1-10.1-1.5-15.2c-1.8,1-12,6.7-24.4,3c-9.9-2.9-15.2-10-16.7-12.2
	c18.7-59.5,1.2-91.3-4.6-100.5c-30.3-47.9-104.3-49.1-170.5-50.2c-48.7-0.8-88.7,6-115.7,12.2c77.1-154.3,154.2-308.6,231.4-462.8
	c3.8,12,9.4,28.8,16.7,48.7c14.7,40.1,19.9,48,28.9,53.3c19.5,11.4,42.2,2.3,44.1,1.5c25.7-10.8,31.5-37.3,32-39.6
	c1.8,6.5,6.4,19.6,15.2,21.3c9.3,1.7,18.1-10.1,25.9-19.8c39.4-48.9,61.7-53.9,59.4-65.4c-2.5-12.6-32.7-25.9-169-22.8
	c-84.2-9.1-168.4-18.3-252.7-27.4c-20.2,39.4-40.7,84.6-59.4,135.5C124.8,244.7,109.5,302.4,98.9,353.1z"/>
</svg>
