<?xml version="1.0" encoding="utf-8"?>
<!-- Generator: Adobe Illustrator 19.2.0, SVG Export Plug-In . SVG Version: 6.00 Build 0)  -->
<svg version="1.1" id="Layer_1" xmlns="http://www.w3.org/2000/svg" xmlns:xlink="http://www.w3.org/1999/xlink" x="0px" y="0px"
	 viewBox="0 0 1000 1000" style="enable-background:new 0 0 1000 1000;" xml:space="preserve">
<g id="XMLID_15_">
	<path id="XMLID_18_" d="M74.5,135.5c3.6-3.4,56.1-50.6,116.3-32.6c22.4,6.7,37.7,20.1,46.5,29.5c61.5,70.3,123,140.6,184.5,210.9
		c-29,9.3-62.2,18.1-99.2,24.8c-51.7,9.4-98.4,12.4-138,12.4c2.2,4.3,5.1,9.1,9.3,14c11.3,13.2,24.9,19.1,32.6,21.7
		c-23.2,27.5-46.6,56.9-69.8,88.4C91.5,592.9,41,679.4,1.6,758.7c76,7.8,151.9,15.5,227.9,23.3c25.2-82.8,62.7-180.3,119.4-283.7
		c33.5-61.1,68.5-114.7,102.3-161.2c-26.3-34.2-52.7-69.3-79.1-105.4C312.2,149.6,257,68.8,206.2-10.2
		C91.1,103,70.4,139.2,74.5,135.5z"/>
	<path id="XMLID_17_" d="M524.1,290.5c2.1-38.8,4.1-77.5,6.2-116.3c4.3-16.4,14.5-64.9-9.3-116.3C509.5,33,493.8,15.8,482.2,5.2
		c81.7,0.5,163.3,1,245,1.6c-9.6,29.2-18.7,64.1-24.8,103.9c-7.9,51.8-8.4,97.8-6.2,134.9c-1,101.8-2.1,203.6-3.1,305.4
		c-0.4,26.8,1.7,61.5,10.9,100.8c10.7,46.2,27.5,82.8,41.9,108.5c-87.3,2.1-174.7,4.1-262,6.2c17.5-57,33.1-130.7,34.1-217.1
		c0.4-33.5-1.5-64.6-4.7-93c2.8,1.2,50.9,20.8,85.3-6.2c10.5-8.2,16.6-18.3,20.2-26.4c-1.2-0.2-9.6-1.7-14-9.3
		c-4-7.1-2.9-16.5,3.1-23.3c43.8-31.3,58.6-78.8,45-102.3C637.5,262.6,577.7,251.2,524.1,290.5z"/>
	<path id="XMLID_16_" d="M759.8,349.4c34.5-70.6,97.8-176.1,209.3-271.3C1028,27.8,1086.1-7.4,1135-32c10.3,7.2,20.7,14.5,31,21.7
		c-16.2,17.1-40.8,47.4-57.4,91.5c-20.5,54.5-18.4,102.3-15.5,127.1c-6.2-0.5-12.4-1-18.6-1.6c-3.1-42.8-33.4-77.2-71.3-83.7
		c-44.7-7.7-77,27.2-79.1,29.5c-29.8,31.9-64.1,76.4-91.5,134.9c-9.6,20.6-17.2,40.4-23.3,58.9c17.7,2.2,36.9,3.9,57.4,4.7
		c33.1,1.2,63.3-0.3,89.9-3.1c45.5,54,93.6,117,141.1,189.2c51.3,78,92.5,152.6,125.6,220.2c-80.1,1-160.2,2.1-240.3,3.1
		c-16.8-72.9-49.6-174-117.8-279.1C830.4,427.6,793.5,384,759.8,349.4z"/>
</g>
</svg>
